<svg width="115" height="11" viewBox="0 0 115 11" fill="none" xmlns="http://www.w3.org/2000/svg">
<g clip-path="url(#clip0_1_755)">
<path d="M83.3284 0.324707H82.1695V6.59286C82.1695 8.4772 81.9487 9.31724 80.6372 9.31724C79.8367 9.31724 79.2653 8.7051 79.2151 7.79375L79.2099 7.69974H78.0567V7.79918C78.0567 9.40019 79.0718 10.476 80.5829 10.476C81.5815 10.476 82.4534 10.0065 82.9167 9.22131C83.2606 8.64315 83.3284 7.96534 83.3284 6.99064V0.324707Z" fill="black"/>
<path d="M84.5121 10.2705H89.7693V9.12585H85.6705V5.85667H89.7693V4.69764H85.6705V1.48289H89.7693V0.324707H84.5121V10.2705Z" fill="black"/>
<path d="M93.0324 6.13752L94.7126 1.6255L96.4191 6.13752H93.0324ZM94.0962 0.324707L90.288 10.1345L90.2352 10.2705H91.4634L92.6285 7.21373H96.823L97.9887 10.2705H99.2303L95.3833 0.324707H94.0962Z" fill="black"/>
<path d="M106.224 8.65132L101.066 0.371826L101.037 0.324707H99.7309V10.2703H100.876L100.771 1.93073L105.929 10.2232L105.958 10.2703H107.264V0.324707H106.119L106.224 8.65132Z" fill="black"/>
<path d="M112.014 4.67655C111.746 4.57272 111.491 4.49162 111.245 4.4126C110.784 4.2654 110.385 4.13823 110.092 3.92306C109.716 3.63721 109.555 3.31176 109.555 2.83681C109.555 1.91068 110.192 1.26373 111.101 1.26373C111.946 1.26373 112.461 1.82041 112.552 2.83139L112.56 2.92229H113.66L113.654 2.81721C113.556 1.11924 112.626 0.145996 111.101 0.145996C109.509 0.145996 108.398 1.27499 108.398 2.89123C108.398 4.16888 109.001 4.89485 110.481 5.39814L110.716 5.47571C111.954 5.88455 112.701 6.13019 112.701 7.38761C112.701 8.54388 112.03 9.26218 110.951 9.26218C109.954 9.26218 109.294 8.52598 109.268 7.38487L109.266 7.28796H108.135L108.137 7.38885C108.165 9.22712 109.291 10.462 110.937 10.462C112.686 10.462 113.861 9.15456 113.861 7.20977C113.86 5.93751 113.308 5.17986 112.014 4.67655Z" fill="black"/>
<path d="M5.61805 1.27772C6.97138 1.27772 7.99965 1.82689 8.85552 3.0055L8.88494 3.04637H10.251L10.1753 2.90126C9.26126 1.1422 7.6058 0.133301 5.63181 0.133301C4.25742 0.133301 3.07672 0.618256 2.12161 1.57378C1.10688 2.57455 0.570007 3.84073 0.570007 5.23576C0.570007 8.21531 2.77003 10.4621 5.68664 10.4621C7.57995 10.4621 9.18534 9.49424 10.0925 7.80543L10.1709 7.65908H8.81632L8.78653 7.70035C8.00048 8.79202 6.93528 9.34495 5.61826 9.34495C3.46827 9.34495 1.78365 7.54609 1.78365 5.25014C1.78344 3.09682 3.53958 1.27772 5.61805 1.27772Z" fill="black"/>
<path d="M12.5459 6.13759L14.2272 1.62578L15.9333 6.13759H12.5459ZM14.8977 0.325195H13.61L9.74939 10.2703H10.9778L12.1429 7.21401H16.3376L17.503 10.2703H18.7444L14.9221 0.388994L14.8977 0.325195Z" fill="black"/>
<path d="M19.3905 0.325195V10.2701H23.9761V9.1255H20.5487V0.325195H19.3905Z" fill="black"/>
<path d="M26.881 10.2703L30.6295 0.325195H29.4569L26.4282 8.44686L23.4128 0.325195H22.2404L25.9891 10.2703H26.881Z" fill="black"/>
<path d="M32.4657 0.324707H31.3071V10.2699H32.4657V0.324707Z" fill="black"/>
<path d="M34.9573 0.325195H33.6508V10.2701H34.7967L34.6906 1.93101L39.8775 10.2701H41.1841V0.325195H40.038L40.1437 8.6516L34.9862 0.372106L34.9573 0.325195Z" fill="black"/>
<path d="M66.2262 0.324707H65.0678V10.2699H66.2262V0.324707Z" fill="black"/>
<path d="M68.7177 0.325195H67.412V10.2701H68.5579L68.4514 1.93101L73.6383 10.2701H74.9446V0.325195H73.7991L73.9051 8.6516L68.7467 0.372106L68.7177 0.325195Z" fill="black"/>
<path d="M45.6127 0.325195V10.2701H46.7573V7.20506L47.7508 6.01187L51.0093 10.2701H52.4388L48.4989 5.14285L52.5179 0.325195H51.1211L46.7573 5.56445V0.325195H45.6127Z" fill="black"/>
<path d="M57.7829 9.1255H54.3558V0.325195H53.1974V10.2701H57.7829V9.1255Z" fill="black"/>
<path d="M63.884 1.48317V0.325195H58.6263V10.2701H63.884V9.12551H59.7852V5.85674H63.884V4.69772H59.7852V1.48317H63.884Z" fill="black"/>
</g>
<defs>
<clipPath id="clip0_1_755">
<rect width="113.77" height="10.3427" fill="white" transform="translate(0.570007 0.133301)"/>
</clipPath>
</defs>
</svg>
