<svg width="72" height="23" viewBox="0 0 72 23" fill="none" xmlns="http://www.w3.org/2000/svg">
<g clip-path="url(#clip0_1_715)">
<path d="M10.0533 10.1374C9.83523 11.8817 8.67229 12.8993 6.92788 12.8993C4.45664 12.8993 2.71222 10.3554 2.71222 6.79391C2.71222 2.7963 4.1659 0.543106 6.63714 0.543106C8.96302 0.543106 9.61718 2.28752 10.0533 4.17729V4.24997H10.2713V0.179688H9.9806V0.325055C9.9806 0.688473 9.76254 0.906525 9.47181 0.906525C9.1084 0.906525 8.81765 0.761157 8.52692 0.61579C8.01814 0.397738 7.50935 0.179688 6.56446 0.179688C3.29369 0.179688 0.822449 3.08704 0.822449 6.86658C0.822449 10.5735 3.14833 13.4081 6.20104 13.4081C8.5996 13.4081 10.126 12.1725 10.344 10.1374V9.99199H10.0533V10.1374Z" fill="black"/>
<path d="M23.7177 0.61593H23.9358C24.5173 0.61593 25.2441 0.833981 25.2441 2.50571V8.82918C25.2441 10.937 23.8631 12.318 21.7553 12.318C19.6474 12.318 18.1938 10.937 18.1938 8.90187V0.61593H19.2841V0.325195H15.2864V0.61593H16.4493V8.97456C16.4493 11.5185 18.3391 13.4083 20.8831 13.4083C23.4996 13.4083 25.4622 11.4458 25.4622 8.82918V2.50571C25.4622 1.27008 25.8983 0.61593 26.7704 0.61593H26.9885V0.325195H23.7177V0.61593Z" fill="black"/>
<path d="M41.8161 11.6639C41.8161 12.1 41.598 12.4634 41.3073 12.4634C40.9439 12.4634 40.7258 12.2454 40.7258 10.9371C40.7258 8.68389 39.781 7.37559 38.0365 6.93948C39.9264 6.50339 41.2346 5.19508 41.2346 3.66871C41.2346 1.63358 39.4903 0.397949 36.8736 0.397949H31.5677V0.688684H32.7307V12.9722H31.5677V13.263H35.5653V12.9722H34.475V7.08485H36.4376C38.618 7.08485 39.0541 8.53852 39.0541 10.9371C39.0541 12.2454 39.2722 13.4083 40.5804 13.4083C41.6707 13.4083 42.0342 12.4634 42.0342 11.6639V11.1551H41.7434V11.6639H41.8161ZM34.4023 6.79412V0.616001H36.4376C38.3273 0.616001 39.4176 1.77894 39.4176 3.66871C39.4176 4.83166 39.0541 6.79412 36.3649 6.79412H34.4023Z" fill="black"/>
<path d="M70.3808 9.91944C70.0174 12.2453 69.2905 12.8995 67.328 12.8995H64.566V6.93941H66.1651C67.6187 6.93941 68.2729 7.4482 68.491 8.75651V8.82918H68.7817V4.68622H68.4183V4.7589C68.2729 6.06721 67.5461 6.57599 66.0924 6.57599H64.4933V0.61593H67.11C69.0725 0.61593 69.7993 1.34276 70.1628 3.59596V3.66864H70.3808V0.325195H61.6587V0.61593H62.8217V12.8995H61.6587V13.2629H70.5988V9.91944H70.3808Z" fill="black"/>
<path d="M54.0269 0.61593H54.245C54.7538 0.61593 55.1172 0.761297 55.2626 1.05203C55.4807 1.34276 55.4807 1.85155 55.2626 2.43302L52.1372 11.4458L48.1396 0.61593H49.3024V0.325195H45.3049V0.61593H46.3224L51.0469 13.2629H51.8465L55.5534 2.57839C55.9894 1.27008 56.4255 0.688613 57.0797 0.688613H57.2977V0.325195H54.0269V0.61593Z" fill="black"/>
<path d="M47.9215 18.2778H47.34V18.5686V18.6413V20.8945C47.34 21.6213 46.7585 21.8393 45.8862 21.8393C45.0141 21.8393 44.4326 21.6213 44.4326 20.8945V18.6413V18.5686V18.2778H43.8511V18.5686V18.6413V21.0399C43.8511 22.0574 44.9414 22.4208 45.8862 22.4208C46.8312 22.4208 47.9215 22.1301 47.9215 21.0399V18.6413V18.5686V18.2778Z" fill="black"/>
<path d="M50.0293 18.2778H49.4479V18.5686V18.6413V21.9847C49.4479 22.0574 49.4479 22.0574 49.4479 22.0574V22.3481H50.0293V18.2778Z" fill="black"/>
<path d="M57.0798 21.8393H54.0271V20.5311H56.4256V20.0223H56.1348H54.0997V18.7866H57.0071H57.0798H57.3705V18.2778H57.0798H53.5909V18.5686V18.6413V21.9847C53.5909 22.0574 53.5909 22.0574 53.5909 22.0574V22.3481H57.5886V21.8393H57.0798Z" fill="black"/>
<path d="M26.4071 18.2778V18.6413C26.4071 18.6413 26.4071 18.6413 26.4071 18.7139V21.1126C26.4071 21.7667 26.189 21.912 25.4622 21.912C25.0987 21.912 24.808 21.8393 24.59 21.694L24.2266 21.5486L24.0812 21.9847L24.5174 22.2028C24.5899 22.2028 24.6626 22.2755 24.7353 22.2755C24.9534 22.3481 25.1714 22.4208 25.5348 22.4208C26.4071 22.4208 27.0613 22.2028 27.0613 21.258V18.6413C27.0613 18.6413 27.0613 18.6413 27.0613 18.5686V18.2778H26.4071Z" fill="black"/>
<path d="M29.0965 20.6038L29.9687 18.6413L30.9135 20.6038H29.0965ZM31.495 21.912C31.495 21.9847 31.5677 21.9847 31.5677 22.0574L31.7131 22.3481H32.2946L30.4047 18.2778H29.6053L27.8608 22.3481H28.3696L28.4423 22.1301C28.4423 22.1301 28.4423 22.0574 28.515 21.9847L28.8784 21.1853H31.1316L31.495 21.912Z" fill="black"/>
<path d="M37.1643 21.6215L36.8009 21.1128L36.3647 21.4034C36.1468 21.6215 35.7107 21.7668 35.0565 21.7668C34.1116 21.7668 33.4574 21.1128 33.4574 20.2405C33.4574 19.3683 34.1116 18.6414 35.1292 18.6414C35.5653 18.6414 36.0741 18.8595 36.3647 19.0049L36.7282 19.2229L37.0189 18.6414L36.6555 18.4234C36.5828 18.4234 36.5101 18.3507 36.3647 18.278C36.0014 18.1326 35.7107 18.0601 35.2019 18.0601C33.9662 18.0601 32.876 18.8595 32.876 20.1678C32.876 21.4761 33.8935 22.2756 35.1292 22.2756C36.1468 22.2756 36.6555 21.8395 36.8736 21.6941L37.1643 21.6215Z" fill="black"/>
<path d="M40.2898 21.9119C39.1995 21.9119 38.5454 21.1851 38.5454 20.3129C38.5454 19.4407 39.1995 18.7138 40.2898 18.7138C41.3801 18.7138 42.0342 19.4407 42.0342 20.3129C42.0342 20.8217 41.8161 21.2578 41.4528 21.5485C41.2348 21.6938 41.0167 21.7665 40.7986 21.8392C40.6533 21.9119 40.5079 21.9119 40.2898 21.9119ZM41.6708 22.7114L41.8888 22.9295L42.3249 22.4934L42.0342 22.2026C41.9615 22.13 41.8888 22.0573 41.7434 21.9119C42.3249 21.5485 42.6157 20.8944 42.6157 20.2402C42.6157 19.0772 41.6708 18.1323 40.2898 18.1323C38.9088 18.1323 37.964 19.0772 37.964 20.2402C37.964 21.4031 38.8361 22.348 40.2898 22.348C40.5806 22.348 40.8713 22.2753 41.1621 22.2026C41.4527 22.4934 41.5981 22.6388 41.6708 22.7114Z" fill="black"/>
<path d="M51.9919 19.9497H51.4104V20.5312H51.9919V19.9497Z" fill="black"/>
<path d="M19.4296 19.6589L18.3394 18.2778H17.6125L19.1388 20.1677V22.3481H19.7203V20.1677L21.2467 18.2778H20.5199L19.4296 19.6589ZM15.7955 20.6038C15.9407 20.6765 16.0134 20.7492 16.0861 20.8219C16.1588 20.8945 16.2315 21.0399 16.2315 21.1853C16.2315 21.3305 16.2315 21.4032 16.1588 21.5486C16.0861 21.6213 16.0134 21.7667 15.8681 21.7667C15.7228 21.8393 15.5047 21.8393 15.214 21.8393H14.6325V20.5311H15.1413C15.4321 20.5311 15.6501 20.5311 15.7955 20.6038ZM15.8681 19.3681C15.8681 19.5862 15.7955 19.7316 15.6501 19.8042C15.5047 19.9496 15.2867 19.9496 14.9959 19.9496H14.6325V18.7139H15.1413C15.5774 18.7866 15.8681 19.0047 15.8681 19.3681ZM16.1588 22.2028C16.3769 22.1301 16.5222 21.9847 16.5949 21.8393C16.6676 21.694 16.7403 21.4759 16.7403 21.258C16.7403 20.9672 16.6676 20.7492 16.4495 20.6038C16.3042 20.3857 16.0134 20.313 15.7228 20.2404C16.1588 20.095 16.3769 19.8042 16.3769 19.3681C16.3769 19.1501 16.3042 19.0047 16.2315 18.7866C16.1588 18.6413 16.0134 18.4959 15.7955 18.4232C15.5774 18.3505 15.3594 18.2778 14.9959 18.2778H13.9056V22.3481H15.2867C15.7228 22.3481 15.9407 22.2755 16.1588 22.2028Z" fill="black"/>
</g>
<defs>
<clipPath id="clip0_1_715">
<rect width="70.525" height="22.75" fill="white" transform="translate(0.822449 0.179688)"/>
</clipPath>
</defs>
</svg>
