<svg width="32" height="24" viewBox="0 0 32 24" fill="none" xmlns="http://www.w3.org/2000/svg">
<g clip-path="url(#clip0_1_785)">
<path d="M27.3113 1.14189H23.2548V1.49772H24.3271V22.3947C24.3063 22.8416 24.1339 23.0048 23.475 23.0271H23.2548V23.4066H27.8208V23.0257H27.3378C26.5782 23.0048 26.2953 22.6894 26.2835 22.0346V13.6218H27.6088C29.5437 13.6218 30.6425 12.6975 30.6425 11.4604V3.49929C30.6425 2.25804 29.6938 1.14328 27.3113 1.14328V1.14189ZM28.7027 11.8607C28.7042 12.5488 28.26 13.1979 27.3982 13.1847H26.2848V1.49842H27.2961C28.2621 1.49842 28.7027 2.31156 28.7027 2.93009V11.8607ZM18.6678 22.0159V22.0297L16.095 1.1398H14.3623L11.8569 21.8067C11.7096 22.5545 11.6359 23.0063 10.4579 23.0264V23.4066H13.5062V23.0257C12.6443 23.0257 12.2523 22.5281 12.3406 21.995L13.3511 13.6113H15.721L16.7941 22.2737C16.7906 22.7949 16.7315 22.984 16.1012 23.0257H15.8023V23.4059H19.8681V23.0251H19.7624C18.9805 22.9833 18.7199 22.5107 18.6678 22.0145V22.0159ZM13.4025 13.2229L14.4659 4.25544L15.6751 13.2229H13.4025ZM5.88833 1.42753C5.88554 1.78545 5.65897 1.76112 5.47272 1.64575C4.81666 1.2239 4.00769 0.920185 3.2849 0.929915C2.11315 0.931305 0.423627 1.44838 0.418762 3.69806V20.2506C0.441002 23.1299 1.96511 23.6582 3.46281 23.6797C4.63039 23.6811 5.19126 23.1306 5.66245 22.943C5.91265 22.8387 6.18787 23.0702 6.18787 23.492H6.67158V13.6232H7.64943V13.2048H3.53093V13.6238H4.72353V22.0194C4.72353 22.7547 4.17448 23.3065 3.48436 23.3065C2.81439 23.3065 2.30079 22.7366 2.30079 22.0194V3.04615C2.30079 2.53048 2.40504 1.32675 3.28351 1.3337C4.00769 1.34204 4.50877 1.9995 4.74298 3.00585C4.98832 4.05806 5.13913 6.60589 5.13913 7.67618C5.13913 8.03757 5.27118 8.15989 5.6701 8.15989H6.42903V1.12938H5.88694V1.42822L5.88833 1.42753Z" fill="black"/>
</g>
<defs>
<clipPath id="clip0_1_785">
<rect width="30.7125" height="22.75" fill="white" transform="translate(0.418762 0.929688)"/>
</clipPath>
</defs>
</svg>
