<svg width="112" height="24" viewBox="0 0 112 24" fill="none" xmlns="http://www.w3.org/2000/svg">
<g clip-path="url(#clip0_1_814)">
<path d="M5.41468 5.6802H8.63657V9.34331C8.46197 9.49908 8.26272 9.65049 8.0374 9.7983C7.81281 9.94465 7.55053 10.0751 7.25276 10.1903C6.95427 10.3055 6.62172 10.3967 6.25439 10.4648C5.88706 10.5344 5.47409 10.5684 5.01476 10.5684C4.29894 10.5684 3.65413 10.4467 3.08032 10.204C2.5065 9.96059 2.01601 9.62514 1.60666 9.19841C1.19877 8.77239 0.886507 8.26669 0.670604 7.68419C0.4547 7.10096 0.347473 6.46556 0.347473 5.77728C0.347473 5.1071 0.459048 4.47824 0.68437 3.88993C0.908967 3.30308 1.22413 2.79158 1.62768 2.3547C2.03123 1.91927 2.51592 1.57441 3.08032 1.32228C3.64544 1.07015 4.2714 0.943359 4.96042 0.943359C5.44657 0.943359 5.88272 1.00132 6.26815 1.11652C6.65359 1.23099 6.99121 1.37734 7.2803 1.55629C7.5701 1.73525 7.81498 1.93014 8.01711 2.14097C8.21853 2.35253 8.38879 2.55467 8.52645 2.74738L7.59038 3.54652C7.48026 3.39002 7.34694 3.22701 7.19046 3.05747C7.03469 2.88794 6.85066 2.73362 6.63983 2.59596C6.42827 2.45831 6.18774 2.34383 5.91676 2.25182C5.6458 2.16053 5.33643 2.11417 4.98722 2.11417C4.48297 2.11417 4.02798 2.21053 3.62443 2.40324C3.22088 2.59596 2.87818 2.85751 2.59852 3.18861C2.31886 3.51898 2.10295 3.9066 1.95153 4.35145C1.80012 4.79702 1.72404 5.26723 1.72404 5.76279C1.72404 6.29603 1.80735 6.78217 1.97182 7.22267C2.13773 7.66317 2.36886 8.04209 2.66735 8.3587C2.96585 8.67531 3.31651 8.92381 3.72079 9.10276C4.12505 9.28173 4.56991 9.37084 5.05678 9.37084C5.58856 9.37084 6.04066 9.31143 6.41305 9.19189C6.78473 9.07306 7.10352 8.90715 7.36941 8.69632V6.82346H5.41468V5.6802Z" fill="black"/>
<path d="M13.4125 1.16406H14.7347V9.17784H19.5129V10.3479H13.4125V1.16406Z" fill="black"/>
<path d="M28.3561 6.67177L26.8694 2.63699L25.3683 6.67177H28.3561ZM26.2355 1.16406H27.5859L31.1787 10.3479H29.7059L28.756 7.78679H24.9828L24.0323 10.3479H22.6419L26.2355 1.16406Z" fill="black"/>
<path d="M35.2503 8.11681C35.3785 8.26389 35.5228 8.41313 35.6843 8.56455C35.8436 8.71598 36.0255 8.85147 36.2277 8.97101C36.4298 9.09055 36.6545 9.1869 36.9022 9.25936C37.1499 9.33325 37.4209 9.36948 37.7144 9.36948C38.3208 9.36948 38.7939 9.23255 39.1329 8.95651C39.4727 8.6812 39.6423 8.31025 39.6423 7.84149C39.6423 7.33651 39.4503 6.9576 39.0648 6.70547C38.6786 6.45334 38.123 6.24902 37.3985 6.09254C37.0037 6.00994 36.6457 5.89547 36.324 5.74839C36.0023 5.60132 35.7249 5.41801 35.4908 5.19777C35.2568 4.97752 35.0757 4.72249 34.9467 4.4334C34.8185 4.14433 34.754 3.8154 34.754 3.44881C34.754 3.10973 34.8185 2.78806 34.9467 2.48521C35.0757 2.18236 35.2677 1.91574 35.5256 1.6868C35.7821 1.45713 36.1038 1.2731 36.4892 1.13617C36.8747 0.997791 37.3195 0.929688 37.8252 0.929688C38.2752 0.929688 38.6627 0.977505 38.9887 1.07386C39.314 1.17022 39.5923 1.28759 39.8219 1.42453C40.0509 1.56291 40.235 1.70491 40.3726 1.85199C40.5102 1.99834 40.6152 2.11789 40.6892 2.2099L39.8082 3.02206C39.7531 2.95759 39.6705 2.87282 39.5596 2.76705C39.4503 2.66199 39.3104 2.55838 39.1402 2.45695C38.9699 2.35625 38.7728 2.27147 38.5483 2.20265C38.3229 2.13382 38.0636 2.09905 37.7701 2.09905C37.476 2.09905 37.2239 2.13817 37.013 2.21642C36.8014 2.29466 36.6268 2.3961 36.4892 2.51926C36.3523 2.64315 36.2509 2.7837 36.1864 2.93947C36.1219 3.09524 36.09 3.25173 36.09 3.4075C36.09 3.63645 36.1386 3.83206 36.2341 3.99291C36.3305 4.15302 36.4711 4.29575 36.6545 4.41892C36.8377 4.54354 37.0652 4.64931 37.3362 4.73625C37.6071 4.82392 37.9172 4.90796 38.2657 4.99128C38.6055 5.07387 38.9381 5.18182 39.2641 5.31514C39.5894 5.44772 39.8813 5.62668 40.1385 5.85199C40.3958 6.07732 40.6001 6.35191 40.7515 6.67793C40.9029 7.00396 40.9783 7.40099 40.9783 7.86903C40.9783 8.26389 40.8956 8.62614 40.7305 8.95651C40.5653 9.28689 40.3378 9.57452 40.0487 9.81795C39.7596 10.0614 39.4177 10.249 39.0228 10.3823C38.6279 10.5157 38.2012 10.5816 37.7419 10.5816C37.3108 10.5816 36.9188 10.5309 36.5646 10.4302C36.2117 10.3295 35.8907 10.2012 35.601 10.0447C35.3119 9.88823 35.059 9.71652 34.8431 9.52815C34.628 9.33978 34.4511 9.1543 34.3135 8.97101L35.2503 8.11681Z" fill="black"/>
<path d="M45.8872 8.11681C46.0154 8.26389 46.1595 8.41313 46.3211 8.56455C46.4805 8.71598 46.6624 8.85147 46.8645 8.97101C47.0666 9.09055 47.2912 9.1869 47.539 9.25936C47.7868 9.33325 48.0577 9.36948 48.3512 9.36948C48.9576 9.36948 49.4307 9.23255 49.7698 8.95651C50.1096 8.6812 50.2791 8.31025 50.2791 7.84149C50.2791 7.33651 50.087 6.9576 49.7017 6.70547C49.3155 6.45334 48.7598 6.24902 48.0353 6.09254C47.6404 6.00994 47.2825 5.89547 46.9609 5.74839C46.6392 5.60132 46.3616 5.41801 46.1276 5.19777C45.8936 4.97752 45.7126 4.72249 45.5836 4.4334C45.4553 4.14433 45.3909 3.8154 45.3909 3.44881C45.3909 3.10973 45.4553 2.78806 45.5836 2.48521C45.7126 2.18236 45.9045 1.91574 46.1624 1.6868C46.4189 1.45713 46.7406 1.2731 47.126 1.13617C47.5115 0.997791 47.9563 0.929688 48.462 0.929688C48.9119 0.929688 49.2995 0.977505 49.6256 1.07386C49.9509 1.17022 50.2291 1.28759 50.4588 1.42453C50.6878 1.56291 50.8717 1.70491 51.0094 1.85199C51.1471 1.99834 51.2521 2.11789 51.326 2.2099L50.445 3.02206C50.39 2.95759 50.3074 2.87282 50.1965 2.76705C50.087 2.66199 49.9472 2.55838 49.777 2.45695C49.6068 2.35625 49.4097 2.27147 49.1851 2.20265C48.9598 2.13382 48.7004 2.09905 48.407 2.09905C48.1128 2.09905 47.8607 2.13817 47.6498 2.21642C47.4383 2.29466 47.2637 2.3961 47.126 2.51926C46.9891 2.64315 46.8877 2.7837 46.8232 2.93947C46.7587 3.09524 46.7269 3.25173 46.7269 3.4075C46.7269 3.63645 46.7753 3.83206 46.871 3.99291C46.9673 4.15302 47.1079 4.29575 47.2912 4.41892C47.4745 4.54354 47.702 4.64931 47.973 4.73625C48.2439 4.82392 48.554 4.90796 48.9026 4.99128C49.2423 5.07387 49.5748 5.18182 49.9008 5.31514C50.2262 5.44772 50.5182 5.62668 50.7753 5.85199C51.0325 6.07732 51.2368 6.35191 51.3883 6.67793C51.5397 7.00396 51.615 7.40099 51.615 7.86903C51.615 8.26389 51.5325 8.62614 51.3673 8.95651C51.2021 9.28689 50.9746 9.57452 50.6855 9.81795C50.3964 10.0614 50.0545 10.249 49.6597 10.3823C49.2647 10.5157 48.8381 10.5816 48.3787 10.5816C47.9476 10.5816 47.5556 10.5309 47.2013 10.4302C46.8486 10.3295 46.5276 10.2012 46.2377 10.0447C45.9487 9.88823 45.6958 9.71652 45.4799 9.52815C45.2647 9.33978 45.088 9.1543 44.9503 8.97101L45.8872 8.11681Z" fill="black"/>
<path d="M56.2492 1.16406H57.5714V5.0054H62.5974V1.16406H63.9196V10.3479H62.5974V6.18925H57.5714V10.3479H56.2492V1.16406Z" fill="black"/>
<path d="M73.0853 9.34267C73.5896 9.34267 74.0468 9.24631 74.4555 9.05433C74.8634 8.86088 75.2133 8.59933 75.5016 8.26895C75.7907 7.93858 76.0138 7.55532 76.1696 7.11916C76.3261 6.683 76.4037 6.2215 76.4037 5.73535C76.4037 5.23906 76.3261 4.7732 76.1696 4.33777C76.0138 3.90162 75.7907 3.51835 75.5016 3.18798C75.2133 2.8576 74.8634 2.5975 74.4555 2.40986C74.0468 2.22149 73.5896 2.1273 73.0853 2.1273C72.5804 2.1273 72.1261 2.22149 71.7218 2.40986C71.3184 2.5975 70.9713 2.8576 70.6829 3.18798C70.3931 3.51835 70.1707 3.90162 70.0149 4.33777C69.8584 4.7732 69.7802 5.23906 69.7802 5.73535C69.7802 6.2215 69.8584 6.683 70.0149 7.11916C70.1707 7.55532 70.3931 7.93858 70.6829 8.26895C70.9713 8.59933 71.3184 8.86088 71.7218 9.05433C72.1261 9.24631 72.5804 9.34267 73.0853 9.34267ZM73.0853 10.5823C72.4247 10.5823 71.8088 10.4555 71.2401 10.2034C70.6705 9.95126 70.1751 9.6064 69.7527 9.17097C69.3302 8.73481 68.9999 8.22259 68.7615 7.63574C68.5224 7.04816 68.4036 6.41929 68.4036 5.74912C68.4036 5.07895 68.5224 4.45224 68.7615 3.86902C68.9999 3.28651 69.3281 2.77646 69.7461 2.34103C70.1635 1.9056 70.6591 1.56073 71.2328 1.30861C71.8067 1.05575 72.4247 0.929688 73.0853 0.929688C73.7461 0.929688 74.3634 1.05575 74.9372 1.30861C75.5111 1.56073 76.0087 1.9056 76.4312 2.34103C76.8535 2.77646 77.1839 3.28651 77.4223 3.86902C77.6614 4.45224 77.7802 5.07895 77.7802 5.74912C77.7802 6.41929 77.6614 7.04816 77.4223 7.63574C77.1839 8.22259 76.8535 8.73481 76.4312 9.17097C76.0087 9.6064 75.5111 9.95126 74.9372 10.2034C74.3634 10.4555 73.7461 10.5823 73.0853 10.5823Z" fill="black"/>
<path d="M82.1859 1.16406H83.5075V6.53412C83.5075 6.94709 83.5444 7.32528 83.6183 7.67014C83.6915 8.01428 83.8175 8.31061 83.9965 8.55839C84.1754 8.80545 84.4138 8.99672 84.7123 9.13003C85.0108 9.26261 85.3897 9.32927 85.849 9.32927C86.2982 9.32927 86.6721 9.26261 86.9706 9.13003C87.2691 8.99672 87.5082 8.80545 87.6871 8.55839C87.8661 8.31061 87.9922 8.01428 88.0653 7.67014C88.1392 7.32528 88.1762 6.94709 88.1762 6.53412V1.16406H89.4977V6.85072C89.4977 7.37383 89.4238 7.86287 89.2774 8.31713C89.1303 8.7714 88.9072 9.16625 88.6094 9.50097C88.3109 9.83642 87.9328 10.1002 87.4734 10.2929C87.014 10.4863 86.4728 10.5827 85.849 10.5827C85.2238 10.5827 84.6826 10.4863 84.224 10.2929C83.7647 10.1002 83.3836 9.83642 83.0807 9.50097C82.7779 9.16625 82.5532 8.7714 82.4061 8.31713C82.2599 7.86287 82.1859 7.37383 82.1859 6.85072V1.16406Z" fill="black"/>
<path d="M94.6702 8.11681C94.7984 8.26389 94.9427 8.41313 95.1042 8.56455C95.2636 8.71598 95.4454 8.85147 95.6476 8.97101C95.8497 9.09055 96.0744 9.1869 96.3221 9.25936C96.5699 9.33325 96.8408 9.36948 97.1343 9.36948C97.7407 9.36948 98.2138 9.23255 98.5529 8.95651C98.8926 8.6812 99.0622 8.31025 99.0622 7.84149C99.0622 7.33651 98.8702 6.9576 98.4847 6.70547C98.0985 6.45334 97.5429 6.24902 96.8184 6.09254C96.4236 6.00994 96.0656 5.89547 95.7439 5.74839C95.4222 5.60132 95.1448 5.41801 94.9107 5.19777C94.6767 4.97752 94.4956 4.72249 94.3666 4.4334C94.2384 4.14433 94.174 3.8154 94.174 3.44881C94.174 3.10973 94.2384 2.78806 94.3666 2.48521C94.4956 2.18236 94.6876 1.91574 94.9455 1.6868C95.202 1.45713 95.5237 1.2731 95.9091 1.13617C96.2946 0.997791 96.7395 0.929688 97.2451 0.929688C97.6951 0.929688 98.0826 0.977505 98.4086 1.07386C98.734 1.17022 99.0122 1.28759 99.2419 1.42453C99.4708 1.56291 99.6549 1.70491 99.7925 1.85199C99.9302 1.99834 100.035 2.11789 100.109 2.2099L99.2281 3.02206C99.173 2.95759 99.0905 2.87282 98.9795 2.76705C98.8702 2.66199 98.7303 2.55838 98.5601 2.45695C98.3899 2.35625 98.1927 2.27147 97.9682 2.20265C97.7428 2.13382 97.4835 2.09905 97.19 2.09905C96.8959 2.09905 96.6438 2.13817 96.4329 2.21642C96.2215 2.29466 96.0468 2.3961 95.9091 2.51926C95.7722 2.64315 95.6708 2.7837 95.6063 2.93947C95.5418 3.09524 95.5099 3.25173 95.5099 3.4075C95.5099 3.63645 95.5585 3.83206 95.6541 3.99291C95.7504 4.15302 95.891 4.29575 96.0744 4.41892C96.2576 4.54354 96.4851 4.64931 96.7561 4.73625C97.027 4.82392 97.3371 4.90796 97.6856 4.99128C98.0254 5.07387 98.358 5.18182 98.684 5.31514C99.0093 5.44772 99.3012 5.62668 99.5585 5.85199C99.8157 6.07732 100.02 6.35191 100.171 6.67793C100.323 7.00396 100.398 7.40099 100.398 7.86903C100.398 8.26389 100.316 8.62614 100.15 8.95651C99.9852 9.28689 99.7577 9.57452 99.4687 9.81795C99.1795 10.0614 98.8376 10.249 98.4428 10.3823C98.0479 10.5157 97.6211 10.5816 97.1618 10.5816C96.7307 10.5816 96.3387 10.5309 95.9845 10.4302C95.6317 10.3295 95.3107 10.2012 95.0209 10.0447C94.7318 9.88823 94.4789 9.71652 94.263 9.52815C94.0479 9.33978 93.8711 9.1543 93.7334 8.97101L94.6702 8.11681Z" fill="black"/>
<path d="M105.046 1.16406H110.829V2.33414H106.368V5.0054H109.728V6.18925H106.368V9.16408H111.16V10.3479H105.046V1.16406Z" fill="black"/>
<path d="M24.063 19.2163H26.8733V19.9401H24.8845V21.0682H26.372V21.7978H24.8845V23.5655H24.063V19.2163Z" fill="black"/>
<path d="M31.5946 21.1725C31.8032 21.1725 31.9656 21.1116 32.0808 20.9899C32.1952 20.8682 32.2531 20.7204 32.2531 20.5465C32.2531 20.3596 32.1923 20.2074 32.0705 20.09C31.9488 19.9726 31.7909 19.9141 31.5946 19.9141H30.936V21.1725H31.5946ZM30.147 19.2163H31.588C31.8619 19.2163 32.0945 19.2569 32.2858 19.3402C32.4771 19.4228 32.6313 19.5279 32.7487 19.6561C32.8661 19.7843 32.9515 19.9242 33.0059 20.0763C33.0603 20.2291 33.0885 20.3741 33.0885 20.5139C33.0885 20.7878 33.0284 21.0305 32.9081 21.2406C32.7885 21.4522 32.606 21.6202 32.3575 21.7463L33.3616 23.5655H32.4358L31.5555 21.8506H30.936V23.5655H30.147V19.2163Z" fill="black"/>
<path d="M38.7696 21.782L38.1958 20.0932L37.6155 21.782H38.7696ZM37.7981 19.2129H38.6458L40.2947 23.5621H39.3825L39.0043 22.4601H37.3872L37.009 23.5621H36.1484L37.7981 19.2129Z" fill="black"/>
<path d="M45.5599 21.2619H47.1183V23.0608C46.9488 23.2223 46.7242 23.3629 46.4467 23.4847C46.1685 23.6064 45.812 23.6672 45.3774 23.6672C45.0209 23.6672 44.702 23.6092 44.4224 23.4919C44.1414 23.3745 43.9036 23.2144 43.7081 23.0123C43.5124 22.8108 43.3625 22.5725 43.2581 22.2986C43.1538 22.0248 43.1017 21.7292 43.1017 21.4118C43.1017 21.0944 43.1559 20.7959 43.2647 20.5185C43.3726 20.2403 43.5262 19.9969 43.7247 19.7882C43.9218 19.5795 44.1573 19.4143 44.4319 19.2926C44.7057 19.1709 45.0078 19.1094 45.3382 19.1094C45.5512 19.1094 45.7468 19.1333 45.9251 19.1782C46.1033 19.2238 46.2655 19.2853 46.4112 19.3644C46.556 19.4419 46.6858 19.5346 46.7988 19.6418C46.9119 19.7476 47.0118 19.8614 47.0987 19.9831L46.5184 20.4983C46.3793 20.299 46.2171 20.1381 46.0322 20.0157C45.8475 19.8947 45.6164 19.8332 45.3382 19.8332C45.1245 19.8332 44.934 19.8758 44.7644 19.9607C44.5949 20.0454 44.4506 20.1592 44.3311 20.2997C44.2115 20.4409 44.1203 20.6069 44.0573 20.7953C43.9943 20.9843 43.9623 21.1836 43.9623 21.3922C43.9623 21.627 44.0008 21.8378 44.0761 22.0248C44.1528 22.2117 44.2565 22.3725 44.3898 22.5073C44.5216 22.642 44.676 22.7449 44.8521 22.8166C45.0288 22.8884 45.2136 22.9246 45.4099 22.9246C45.8098 22.9246 46.1184 22.829 46.3358 22.637V21.9595H45.5599V21.2619Z" fill="black"/>
<path d="M52.0404 21.1725C52.2491 21.1725 52.4113 21.1116 52.5265 20.9899C52.6411 20.8682 52.699 20.7204 52.699 20.5465C52.699 20.3596 52.6381 20.2074 52.5164 20.09C52.3947 19.9726 52.2367 19.9141 52.0404 19.9141H51.3819V21.1725H52.0404ZM50.5929 19.2163H52.0339C52.3078 19.2163 52.5403 19.2569 52.7316 19.3402C52.9228 19.4228 53.0772 19.5279 53.1946 19.6561C53.312 19.7843 53.3974 19.9242 53.4518 20.0763C53.506 20.2291 53.5344 20.3741 53.5344 20.5139C53.5344 20.7878 53.4742 21.0305 53.3539 21.2406C53.2344 21.4522 53.0518 21.6202 52.8033 21.7463L53.8075 23.5655H52.8815L52.0012 21.8506H51.3819V23.5655H50.5929V19.2163Z" fill="black"/>
<path d="M59.2154 21.782L58.6416 20.0932L58.0613 21.782H59.2154ZM58.2438 19.2129H59.0915L60.7405 23.5621H59.8284L59.4502 22.4601H57.8331L57.4549 23.5621H56.5941L58.2438 19.2129Z" fill="black"/>
<path d="M63.8373 19.2163H64.6661L66.7716 22.307V19.2163H67.5735V23.5655H66.765L64.6393 20.4356V23.5655H63.8373V19.2163Z" fill="black"/>
<path d="M74.9254 22.7681C74.8602 22.8681 74.7697 22.9695 74.6545 23.0746C74.54 23.1782 74.4038 23.2752 74.2465 23.3644C74.0908 23.4535 73.9184 23.5266 73.7322 23.5832C73.5453 23.6389 73.3475 23.6672 73.1387 23.6672C72.8127 23.6672 72.5149 23.6114 72.2455 23.4984C71.976 23.3854 71.7434 23.2275 71.5477 23.0253C71.3522 22.8232 71.1993 22.5856 71.0914 22.3117C70.9826 22.0371 70.9283 21.7378 70.9283 21.4118C70.9283 21.0937 70.9826 20.7959 71.0914 20.5185C71.1993 20.2403 71.3529 19.9969 71.5514 19.7882C71.7485 19.5795 71.9839 19.4143 72.2585 19.2926C72.5323 19.1709 72.8345 19.1094 73.1649 19.1094C73.3778 19.1094 73.5735 19.1325 73.7517 19.1782C73.93 19.2238 74.0922 19.2853 74.2379 19.3644C74.3828 19.4419 74.5125 19.5346 74.6254 19.6418C74.7385 19.7476 74.8385 19.8614 74.9254 19.9831L74.3451 20.4983C74.2059 20.299 74.0437 20.1381 73.859 20.0157C73.6742 19.8947 73.4431 19.8332 73.1649 19.8332C72.9512 19.8332 72.7606 19.8758 72.591 19.9607C72.4215 20.0454 72.2773 20.1584 72.1578 20.2997C72.0382 20.4409 71.947 20.6069 71.884 20.7953C71.8209 20.9843 71.789 21.1829 71.789 21.3922C71.789 21.601 71.8209 21.7958 71.884 21.9791C71.947 22.1616 72.0368 22.3203 72.1542 22.4544C72.2715 22.5899 72.4114 22.6957 72.5751 22.7746C72.7374 22.8521 72.9207 22.892 73.1258 22.892C73.312 22.892 73.472 22.8703 73.6053 22.8267C73.7373 22.7833 73.8509 22.7282 73.9444 22.663C74.0371 22.5985 74.1162 22.5297 74.1792 22.4581C74.2422 22.387 74.2994 22.3247 74.3517 22.2719L74.9254 22.7681Z" fill="black"/>
<path d="M78.1437 19.2163H80.9606V19.9401H78.9654V20.9639H80.4325V21.6941H78.9654V22.8287H81.1107V23.5655H78.1437V19.2163Z" fill="black"/>
<path d="M84.774 22.3364C84.8254 22.3981 84.8877 22.4618 84.9595 22.5291C85.0311 22.5966 85.1116 22.6596 85.2007 22.7183C85.2898 22.7762 85.3906 22.8262 85.5007 22.8646C85.6115 22.9037 85.7369 22.9241 85.876 22.9241C86.1325 22.9241 86.323 22.8646 86.4469 22.7473C86.5701 22.6299 86.6316 22.4893 86.6316 22.3235C86.6316 22.2321 86.615 22.151 86.5802 22.0793C86.5447 22.0075 86.486 21.9445 86.4041 21.8902C86.3215 21.8358 86.2136 21.7866 86.0817 21.7438C85.9484 21.6997 85.7846 21.6583 85.5891 21.6199C85.3891 21.5801 85.216 21.5193 85.0703 21.4374C84.9247 21.3548 84.8044 21.257 84.7088 21.1439C84.6124 21.0301 84.5414 20.9048 84.4929 20.7686C84.4458 20.631 84.4219 20.4912 84.4219 20.3484C84.4219 20.1825 84.4523 20.0253 84.5131 19.8753C84.574 19.7253 84.6675 19.5928 84.7928 19.4776C84.9189 19.3623 85.0769 19.2703 85.2666 19.2C85.455 19.1305 85.6782 19.0957 85.9347 19.0957C86.165 19.0957 86.3621 19.1219 86.528 19.1748C86.6925 19.2262 86.8309 19.287 86.9417 19.3573C87.0533 19.4261 87.1388 19.495 87.1997 19.5623C87.2605 19.6296 87.304 19.6782 87.3293 19.7087L86.7881 20.2173C86.7671 20.2006 86.7323 20.1687 86.6845 20.1231C86.6359 20.0775 86.5765 20.0325 86.5056 19.9898C86.4331 19.9455 86.3476 19.9065 86.2476 19.8724C86.1476 19.8376 86.0339 19.8195 85.9078 19.8195C85.7949 19.8195 85.697 19.8354 85.6151 19.8659C85.5326 19.8963 85.4637 19.9354 85.4094 19.9825C85.355 20.0304 85.3152 20.084 85.2891 20.1427C85.2631 20.2014 85.2492 20.2564 85.2492 20.3085C85.2492 20.3876 85.2638 20.4564 85.292 20.5172C85.3203 20.5781 85.3681 20.6346 85.4354 20.6875C85.5029 20.7389 85.5956 20.786 85.713 20.8273C85.8303 20.8686 85.9774 20.9063 86.1556 20.9411C86.3258 20.9759 86.4889 21.028 86.6454 21.0976C86.8019 21.1678 86.9395 21.2576 87.0591 21.3685C87.1786 21.4787 87.2743 21.6141 87.346 21.7728C87.4177 21.9315 87.4532 22.1212 87.4532 22.3437C87.4532 22.5343 87.4148 22.711 87.3365 22.8712C87.2584 23.032 87.1489 23.1733 87.0105 23.295C86.8714 23.4167 86.7062 23.5116 86.5142 23.579C86.3237 23.6464 86.1151 23.6797 85.889 23.6797C85.6709 23.6797 85.4745 23.6537 85.2992 23.6015C85.1225 23.55 84.9638 23.4834 84.8225 23.403C84.6812 23.3225 84.5595 23.2342 84.4574 23.1385C84.3552 23.0436 84.2697 22.9523 84.2002 22.8646L84.774 22.3364Z" fill="black"/>
</g>
<defs>
<clipPath id="clip0_1_814">
<rect width="111.475" height="22.75" fill="white" transform="translate(0.347473 0.929688)"/>
</clipPath>
</defs>
</svg>
