<svg width="115" height="13" viewBox="0 0 115 13" fill="none" xmlns="http://www.w3.org/2000/svg">
<g clip-path="url(#clip0_1_790)">
<path d="M5.47363 0.350918H8.67576V8.97909C8.67576 11.1144 6.90818 12.5507 4.61671 12.5507C2.27146 12.5507 0.659973 11.2549 0.659973 9.05017V8.25915H3.51174V8.97559C3.50584 9.1078 3.52693 9.23983 3.57372 9.3636C3.62051 9.48743 3.69201 9.60039 3.78387 9.69566C3.87573 9.79092 3.98602 9.8665 4.10803 9.91776C4.23004 9.96902 4.36121 9.9949 4.49355 9.99383C4.62621 9.99746 4.75818 9.97339 4.88105 9.92326C5.00391 9.87306 5.11497 9.79786 5.20717 9.70241C5.29937 9.60695 5.37068 9.49331 5.41655 9.36879C5.46243 9.24426 5.48186 9.11149 5.47363 8.97909V0.350918ZM18.1244 12.2489L17.3716 10.202H12.8216L12.0514 12.2489H8.83191L13.7843 0.350918H16.7332L21.5018 12.2489H18.1244ZM15.1755 4.09603H15.1339L13.6803 7.91228H16.5494L15.1755 4.09603ZM33.4379 8.25915C32.633 10.797 30.1646 12.5472 27.3128 12.5472C23.8435 12.5472 20.9953 9.95564 20.9953 6.31637C20.9953 2.67709 23.9164 0.0542925 27.3822 0.0542925C30.182 0.0542925 32.5983 1.76986 33.4205 4.29031H29.7778C29.5102 3.89379 29.151 3.56749 28.7308 3.33894C28.3105 3.11039 27.8414 2.98631 27.3632 2.97718C25.7708 2.97718 24.3883 4.325 24.3883 6.3025C24.3883 8.27997 25.776 9.61045 27.3632 9.61045C27.852 9.6062 28.332 9.48043 28.7602 9.24458C29.1884 9.00866 29.5512 8.67004 29.816 8.25915H33.4379ZM41.3063 12.2489L37.9289 7.39188H37.8578V12.2489H34.6556V0.350918H37.8578V4.91999H37.9271L41.2352 0.350918H44.805L40.484 5.81159L45.0687 12.2489H41.3063ZM62.8905 0.350918H66.0927V8.97909C66.0927 11.1144 64.3249 12.5507 62.0319 12.5507C59.6866 12.5507 58.0769 11.2549 58.0769 9.05017V8.25915H60.9286V8.97559C60.9228 9.1078 60.9438 9.23983 60.9906 9.3636C61.0374 9.48743 61.1089 9.60039 61.2007 9.69566C61.2926 9.79092 61.4029 9.8665 61.5249 9.91776C61.6469 9.96902 61.7781 9.9949 61.9104 9.99383C62.0431 9.99746 62.1751 9.97339 62.2979 9.92326C62.4208 9.87306 62.5318 9.79786 62.624 9.70241C62.7163 9.60695 62.7876 9.49331 62.8335 9.36879C62.8793 9.24426 62.8988 9.11149 62.8905 8.97909V0.350918ZM73.6872 12.5507C70.1172 12.5507 67.246 9.95914 67.246 6.31988C67.246 2.68055 70.1222 0.0542925 73.6872 0.0542925C77.2516 0.0542925 80.1833 2.67882 80.1833 6.31988C80.1833 9.96089 77.2572 12.5507 73.6872 12.5507ZM76.8096 6.306C76.8096 4.2747 75.4094 2.99799 73.7116 2.99799C72.0131 2.99799 70.6429 4.325 70.6429 6.3025C70.6429 8.27997 72.0081 9.59833 73.7059 9.59833C75.4044 9.59833 76.8021 8.27997 76.8021 6.3025L76.8096 6.306ZM89.3768 12.2489L84.4503 5.70752H84.3622V12.2489H81.3348V0.350918H84.1003L89.0699 6.93217H89.158V0.350918H92.1854V12.2489H89.3768ZM93.8213 12.2489V0.350918H102.907V3.08126H97.0094V4.88529H101.105V7.56534H97.0094V9.5255H102.907V12.2489H93.8213ZM110.8 4.21919C110.519 3.29115 109.837 2.658 108.559 2.658C107.509 2.658 106.966 3.16625 106.966 3.72654C106.966 4.32153 107.596 4.61816 108.593 4.76733L109.469 4.89049C112.55 5.32763 113.979 6.21577 113.979 8.40662C113.979 10.9982 111.606 12.5559 108.701 12.5559C105.955 12.5559 103.88 11.0155 103.687 8.25053H106.734C106.854 8.76137 107.149 9.21407 107.568 9.53075C107.987 9.84737 108.503 10.0081 109.027 9.98514C110.024 9.98514 110.777 9.49425 110.777 8.74143C110.777 8.19846 110.392 7.84983 108.835 7.62085L107.487 7.42132C105.106 7.07445 103.776 5.93822 103.776 3.87573C103.776 1.74558 105.702 0.0594964 108.711 0.0594964C111.913 0.0594964 113.569 1.93118 113.787 4.22266L110.8 4.21919ZM56.8869 10.4258L55.2043 8.73793L56.6579 7.28261L54.6631 5.29293L53.2095 6.74833L50.9908 4.52969C50.6526 4.18276 50.4565 3.96245 50.4496 3.63114C50.4486 3.41415 50.5324 3.20533 50.683 3.04917C50.8337 2.893 51.0393 2.80182 51.2562 2.79504C51.6587 2.79504 51.8703 2.94248 52.1738 3.26859L52.5069 3.60165L54.4549 1.6519L54.1843 1.3813C53.7977 0.954676 53.3244 0.615583 52.796 0.386725C52.2677 0.157867 51.6966 0.0445262 51.1209 0.0542925C48.7965 0.0542925 47.3984 1.83057 47.3984 3.64849C47.3984 4.48805 47.7071 5.30334 48.5433 6.14464L51.1747 8.77956L50.9076 9.04673C50.4618 9.50812 50.2016 9.81168 49.6933 9.82037C49.081 9.83081 48.5363 9.41967 48.5241 8.77956C48.5241 8.36155 48.6976 8.08575 49.0307 7.73881L49.1035 7.66592L47.2822 5.83935L47.0983 6.02322C46.4044 6.68238 45.6914 7.72837 45.6914 9.12131C45.6914 11.0034 47.2093 12.549 49.5892 12.549C51.0203 12.549 52.0403 11.9124 53.0186 10.9167L53.1643 10.7727L54.8574 12.4605L56.8869 10.4258Z" fill="black"/>
</g>
<defs>
<clipPath id="clip0_1_790">
<rect width="113.77" height="12.5022" fill="white" transform="translate(0.659973 0.0537109)"/>
</clipPath>
</defs>
</svg>
