<svg width="56" height="24" viewBox="0 0 56 24" fill="none" xmlns="http://www.w3.org/2000/svg">
<g clip-path="url(#clip0_1_733)">
<path d="M43.664 14.9606C40.331 14.9606 39.7237 13.0093 39.7237 12.5255H42.1374C42.1374 12.8096 42.5175 13.1499 42.8378 13.2884C43.104 13.3917 43.3888 13.4381 43.674 13.4248H43.6696C44.3494 13.4248 44.9071 13.2579 44.9071 12.858C44.9071 12.3707 44.336 12.2627 43.7066 12.1717C41.9925 11.921 39.5908 11.6297 39.5908 9.68692C39.5908 7.87481 41.5435 6.95277 43.6164 6.95277C46.9352 6.95277 47.8146 8.81603 47.8146 9.35518H45.3617C45.3472 9.2184 45.2983 9.08752 45.2195 8.97474C45.1408 8.86195 45.0348 8.77094 44.9113 8.71019L44.9063 8.70805C44.6081 8.55454 44.278 8.47304 43.9424 8.47008H43.9411C43.0247 8.47008 42.5089 8.6633 42.5089 9.0888C42.5089 9.43616 42.9735 9.60878 43.6412 9.72456C45.3837 10.0279 48.0589 10.133 48.0589 12.2811C48.0589 13.3722 47.1263 14.9592 43.6646 14.9592L43.664 14.9606ZM39.5695 8.08792L38.6297 9.12361H38.239L38.6695 7.99415H37.8086V6.4882H39.5695V8.08792ZM34.1069 7.13391H37.2261V14.7439H34.1069V7.13391ZM30.0394 14.7588H27.3138L23.2441 7.14812H26.9167L29.2523 11.7739L29.3162 11.9132L29.3745 11.7739L31.5581 7.14812H33.763L30.0394 14.7588ZM24.1839 11.5971H17.8717C17.8796 11.8394 17.9364 12.0777 18.0388 12.2975C18.1412 12.5173 18.287 12.7141 18.4674 12.8761C18.6479 13.038 18.8593 13.1617 19.0888 13.2398C19.3184 13.3179 19.5615 13.3487 19.8032 13.3304L19.7968 13.3311C20.1201 13.3473 20.4424 13.2819 20.7337 13.1409C21.0251 12.9998 21.2763 12.7878 21.4641 12.5241L21.4683 12.5184H23.9851C23.1625 14.4342 21.5663 14.9784 19.3912 14.9784C16.5619 14.9784 14.5615 13.4263 14.5615 10.967C14.5615 8.34081 16.5321 6.9549 19.3912 6.9549C22.59 6.9549 24.1939 9.05542 24.1939 11.0771C24.2021 11.2554 24.1982 11.4342 24.1819 11.612L24.1839 11.5971ZM14.5082 14.7468H7.3145V7.15451H10.5487V12.6811H14.5082V14.7468ZM51.3593 0.946026C51.382 0.993619 51.4075 1.03979 51.4289 1.08881C51.6192 1.51999 51.7301 2.02363 51.7301 2.55284V2.58481V2.58339V2.62175C51.7301 3.15736 51.6192 3.66668 51.4197 4.12841L51.4289 4.10354C51.2365 4.5539 50.9608 4.96387 50.6162 5.31186C50.2815 5.64824 49.8843 5.91608 49.447 6.10035L49.4228 6.10958C48.9695 6.29901 48.4828 6.39585 47.9915 6.39443H47.9666H47.968H47.9474C47.4289 6.39443 46.9345 6.29001 46.4848 6.10035L46.5096 6.10958C46.0601 5.92479 45.6511 5.65378 45.3056 5.31186C44.9647 4.97151 44.691 4.57003 44.4987 4.12841L44.4894 4.10354C44.2887 3.63539 44.186 3.13111 44.1876 2.62175V2.58126V2.58339V2.55284C44.1876 2.02363 44.2983 1.5207 44.4987 1.06537L44.4894 1.08881C44.5107 1.03979 44.5363 0.993619 44.5597 0.946026H0.046875L5.30988 23.6773C16.3594 16.4772 26.9785 23.3968 27.4061 23.6602H27.4075L27.4103 23.6582H27.416L27.4189 23.6596L27.421 23.6602C27.8473 23.396 38.4677 16.4772 49.5166 23.6773L54.7789 0.946026H51.3593ZM19.3308 8.54609H19.3187C18.9329 8.54609 18.5629 8.69937 18.2901 8.9722C18.0172 9.24503 17.864 9.61506 17.864 10.0009L17.8653 10.0719V10.0684H20.9206C20.934 9.85846 20.9011 9.64816 20.8244 9.45227C20.7479 9.25639 20.6292 9.07968 20.4769 8.93457C20.3246 8.78947 20.1424 8.67949 19.943 8.61237C19.7437 8.54525 19.532 8.52264 19.3231 8.54609L19.3294 8.54539L19.3308 8.54609ZM45.7574 4.91051C46.0387 5.20614 46.3772 5.44146 46.7524 5.60216C47.1275 5.76287 47.5315 5.8456 47.9396 5.84533H47.9694H47.968H47.9943C48.4241 5.84533 48.8325 5.7537 49.2012 5.5889L49.1827 5.5967C49.5503 5.43484 49.8824 5.20215 50.1601 4.91193L50.1616 4.91051C50.435 4.62139 50.6553 4.279 50.8059 3.9011L50.8137 3.87978C50.9628 3.50543 51.0495 3.07069 51.0495 2.61677V2.58197V2.58339V2.55781C51.05 2.12364 50.9671 1.69341 50.8052 1.29055L50.8129 1.31328C50.7596 1.18162 50.6979 1.0535 50.6283 0.929688L50.6368 0.946026H49.5699C49.6743 1.13498 49.7354 1.36087 49.7354 1.60097L49.7347 1.6507V1.64856C49.749 1.81038 49.7267 1.97334 49.6694 2.12535C49.6121 2.27735 49.5212 2.41449 49.4037 2.52657C49.1799 2.71126 48.8958 2.83273 48.586 2.85759H48.581L49.8348 4.81887H49.1025L47.9098 2.90873H47.1874V4.81887H46.5061V0.946026H45.2822C45.2253 1.04547 45.1664 1.16624 45.1145 1.29055L45.106 1.31257C44.9488 1.7081 44.8688 2.13007 44.8702 2.55569V2.58339V2.58197V2.61607C44.8702 3.06998 44.9568 3.50401 45.1145 3.9018L45.106 3.87836C45.2637 4.27829 45.4838 4.62068 45.7588 4.91122L45.7574 4.91051ZM48.3352 2.33406C48.4696 2.32624 48.5938 2.2957 48.7082 2.24526L48.7012 2.24811C48.8052 2.20271 48.8937 2.12759 48.9554 2.03216L48.9569 2.03002C49.0179 1.92347 49.0534 1.79632 49.0534 1.66064L49.052 1.6166V1.61873L49.0528 1.58819C49.0528 1.47282 49.0226 1.35945 48.9654 1.25929L48.9668 1.26284C48.9125 1.17804 48.8374 1.10858 48.7487 1.0611L48.7459 1.05968C48.6501 1.01037 48.5465 0.978158 48.4396 0.964495L48.4347 0.963784C48.3849 0.95639 48.335 0.950704 48.2848 0.946736H47.1866V2.34969H47.8984C48.0523 2.34969 48.1984 2.34401 48.3352 2.33406Z" fill="black"/>
</g>
<defs>
<clipPath id="clip0_1_733">
<rect width="55.7375" height="22.75" fill="white" transform="translate(0.0462646 0.929688)"/>
</clipPath>
</defs>
</svg>
