<svg width="68" height="24" viewBox="0 0 68 24" fill="none" xmlns="http://www.w3.org/2000/svg">
<g clip-path="url(#clip0_1_795)">
<path d="M35.8647 1.01317C35.7812 1.01317 35.2386 1.01317 34.9882 1.05492C33.068 1.22189 31.8574 2.59941 30.6886 4.18564C29.645 5.64666 28.8519 6.89895 28.1005 8.31822C27.3492 6.89895 26.5142 5.64666 25.5124 4.14391C24.4689 2.64116 23.0079 1.09666 21.0459 0.971433C20.6285 0.92969 20.0441 0.929688 19.8772 0.929688C19.7519 0.929688 19.6684 0.929686 19.6684 1.01317C19.6684 1.18014 19.7937 1.26363 19.9189 1.26363C21.3382 1.34712 22.7157 3.39253 23.3419 4.22739C24.4272 5.68841 25.095 6.85721 25.8882 8.27647C26.6395 9.65399 26.7647 10.4054 26.7647 11.8246V14.4962C26.723 16.5416 26.3056 16.7503 25.3455 16.8755C25.262 16.8755 25.2202 16.9173 25.1785 16.959C25.1367 17.0007 25.1368 17.0842 25.1368 17.1677C25.1368 17.2095 25.1367 17.2512 25.2202 17.2512C25.429 17.2512 26.8482 17.1677 27.9335 17.1677C29.0189 17.1677 30.4382 17.2512 30.6469 17.2512C30.7304 17.2512 30.7721 17.2095 30.7721 17.1677C30.7721 17.126 30.7721 17.0007 30.7304 16.959C30.6886 16.9173 30.6469 16.8755 30.5217 16.8755C29.6867 16.792 29.1859 16.5416 29.1441 14.4962V11.8246C29.1441 10.4054 29.2694 9.61225 30.0207 8.23472C30.7721 6.85721 31.6069 5.56318 32.5252 4.22739C33.1514 3.35079 34.529 1.38886 35.823 1.22189C35.9482 1.22189 35.99 1.09666 35.99 1.01317C36.0735 1.05492 36.0735 1.01317 35.8647 1.01317Z" fill="black"/>
<path d="M0.967443 1.34688C2.01102 1.55559 3.13807 3.0166 3.09634 4.18541V14.2037C3.05459 16.6666 2.63717 16.8335 1.38487 17.0005C1.25965 17.0005 1.17616 17.084 1.17616 17.251C1.17616 17.3345 1.2179 17.3345 1.30138 17.3345C1.55184 17.3345 2.47019 17.251 3.59726 17.251C4.64083 17.251 5.68441 17.3345 5.89312 17.3345C6.01836 17.3345 6.01835 17.2927 6.01835 17.251C6.01835 17.084 5.93487 17.0005 5.80964 17.0005C4.47385 16.7918 4.13992 16.6666 4.09818 14.2037V4.5611L15.494 17.5432C15.5775 17.6267 15.7027 17.6684 15.7862 17.6684C16.2037 17.6684 16.3707 17.5849 16.3707 17.5015C16.2872 16.4997 16.2872 14.2037 16.2872 12.9097V4.14367C16.3289 1.68082 16.7463 1.51385 17.9986 1.34688C18.1238 1.34688 18.2073 1.26339 18.2073 1.09642C18.2073 1.01294 18.1655 1.01293 18.0821 1.01293C17.8317 1.01293 16.9133 1.09642 15.7862 1.09642C14.7427 1.09642 13.699 1.01293 13.4904 1.01293C13.3652 1.01293 13.3652 1.05468 13.3652 1.09642C13.3652 1.26339 13.4487 1.34688 13.5739 1.34688C14.9097 1.55559 15.2435 1.68082 15.2853 4.14367V13.4942L4.39038 1.05468C4.13992 1.05468 3.59726 1.05468 2.76239 1.05468C1.84404 1.05468 1.38487 0.971191 0.883952 0.971191C0.758723 0.971191 0.758728 1.01293 0.758728 1.05468C0.758728 1.26339 0.842214 1.34688 0.967443 1.34688Z" fill="black"/>
<path d="M63.4151 1.01318C63.0812 1.01318 61.4532 1.09668 60.6183 1.09668C59.366 1.09668 57.8633 1.01318 57.571 1.01318C57.4458 1.01318 57.404 1.01319 57.404 1.09668C57.404 1.26365 57.4875 1.34713 57.6128 1.38887C58.9903 1.55585 59.366 1.84805 59.366 3.26731C59.366 3.3508 59.366 14.9972 59.366 14.9972C59.366 15.6232 59.3243 16.2494 59.2408 16.7086C58.7816 19.7141 56.8197 20.6742 56.0265 20.7994C55.8179 20.8412 55.7761 21.0499 55.7761 21.0917C55.7761 21.1751 55.8178 21.2169 55.943 21.2169C56.1518 21.2169 56.444 21.2169 56.8615 21.1751C59.4495 20.8412 61.328 18.8375 61.6619 15.7902C61.7037 15.4563 61.7037 15.0389 61.7037 14.4127V3.26731C61.7037 1.80631 62.288 1.55584 63.3317 1.43061C63.4568 1.43061 63.5403 1.30539 63.5403 1.13841C63.582 1.05493 63.5403 1.05493 63.4151 1.01318Z" fill="black"/>
<path d="M37.91 1.05469C37.7848 1.05469 37.7848 1.09643 37.7848 1.13817C37.7848 1.30514 37.8683 1.38863 37.9935 1.38863C38.6615 1.47212 39.1623 1.63909 39.4128 2.14001C39.705 2.64092 39.7885 3.51753 39.7468 5.43772V13.1185C39.7468 15.0387 39.6633 15.7482 39.3294 16.3327C39.0789 16.75 38.6615 17.0005 37.91 17.084C37.7848 17.084 37.7014 17.2092 37.7014 17.3345C37.7014 17.418 37.743 17.418 37.8265 17.418C38.1188 17.418 39.9555 17.2927 41.333 17.2927C41.9174 17.2927 43.921 17.3762 45.2987 17.3762C51.8523 17.3762 54.3569 13.035 54.3569 9.06936C54.3569 4.10193 51.1009 1.05469 45.6325 1.05469C44.5055 1.05469 42.2514 1.22166 40.7904 1.22166C39.371 1.17991 38.1188 1.05469 37.91 1.05469ZM42.0427 1.9313C42.4183 1.88955 43.295 1.76432 44.7142 1.76432C49.0137 1.76432 51.6853 4.39414 51.727 9.73725C51.727 14.329 48.7215 16.6665 45.0064 16.6665C43.7541 16.6665 43.0027 16.5414 42.5853 16.1657C42.1679 15.8317 42.0844 15.1639 42.0844 13.9115V1.9313H42.0427Z" fill="black"/>
<path d="M14.2418 23.5963H12.3217V21.0083H12.739V23.1789H14.2418V23.5963Z" fill="black"/>
<path d="M17.9568 22.3023C17.9568 21.8014 17.5394 21.3423 16.8715 21.3423C16.2036 21.3423 15.7862 21.7596 15.7862 22.3023C15.7862 22.8033 16.2036 23.2624 16.8715 23.2624C17.5394 23.2624 17.9568 22.8033 17.9568 22.3023ZM16.8715 23.6798C15.9531 23.6798 15.3688 23.0536 15.3688 22.3023C15.3688 21.5509 15.9114 20.9248 16.8715 20.9248C17.8316 20.9248 18.3743 21.5509 18.3743 22.3023C18.3743 23.0536 17.8316 23.6798 16.8715 23.6798Z" fill="black"/>
<path d="M21.9225 21.6761C21.7138 21.5509 21.4633 21.384 20.9207 21.384C20.4615 21.384 20.2528 21.5091 20.2528 21.7179C20.2528 21.9683 20.3363 22.0518 21.0459 22.0518C22.173 22.0518 22.2982 22.4276 22.2982 22.8033C22.2982 23.5546 21.6303 23.6798 21.0877 23.6798C20.2528 23.6798 19.7935 23.3459 19.6267 23.2206L19.8353 22.845C20.1275 23.0119 20.378 23.2206 21.0877 23.2206C21.5468 23.2206 21.839 23.1371 21.839 22.845C21.839 22.511 21.672 22.5111 20.7537 22.4693C20.211 22.4693 19.7935 22.3023 19.7935 21.7596C19.7935 21.3423 20.0858 20.9248 20.9207 20.9248C21.505 20.9248 21.9642 21.1753 22.1312 21.2588L21.9225 21.6761Z" fill="black"/>
<path d="M26.89 21.5091L26.3473 22.5528H27.4325L26.89 21.5091ZM28.4762 23.5963H27.9752L27.6413 22.9701H26.1385L25.8463 23.5963H25.3872L26.723 21.0083H27.1404L28.4762 23.5963Z" fill="black"/>
<path d="M32.1078 23.5963H31.6903L30.1459 21.6761V23.5963H29.7285V21.0083H30.1459L31.6903 22.9284V21.0083H32.1078V23.5963Z" fill="black"/>
<path d="M36.3239 23.2206C36.1152 23.3459 35.7395 23.6798 35.0715 23.6798C34.1532 23.6798 33.6105 23.0536 33.6105 22.3023C33.6105 21.5926 34.1532 20.9248 35.1133 20.9248C35.7812 20.9248 36.1152 21.2588 36.2821 21.3423L36.0317 21.7179C35.7812 21.5091 35.4473 21.384 35.1133 21.384C34.4037 21.384 34.028 21.8431 34.028 22.3441C34.028 22.8033 34.4037 23.2624 35.0715 23.2624C35.3638 23.2624 35.656 23.1789 35.9065 23.0119V22.5945H35.1968V22.1353H36.3239V23.2206Z" fill="black"/>
<path d="M40.039 23.5963H37.8267V21.0083H39.9972V21.4674H38.244V22.0518H39.2042V22.4693H38.244V23.1789H40.039V23.5963Z" fill="black"/>
<path d="M43.4202 23.5963H41.5V21.0083H41.9175V23.1789H43.4202V23.5963Z" fill="black"/>
<path d="M46.9683 23.5963H44.7559V21.0083H46.9266V21.4674H45.1733V22.0518H46.1334V22.4693H45.1733V23.1789H46.9683V23.5963Z" fill="black"/>
<path d="M50.433 21.6761C50.2243 21.5509 49.9738 21.384 49.4312 21.384C48.972 21.384 48.7633 21.5091 48.7633 21.7179C48.7633 21.9683 48.8468 22.0518 49.5565 22.0518C50.6835 22.0518 50.8087 22.4276 50.8087 22.8033C50.8087 23.5546 50.1408 23.6798 49.5982 23.6798C48.7633 23.6798 48.3042 23.3459 48.1372 23.2206L48.3459 22.845C48.638 23.0119 48.8885 23.2206 49.5982 23.2206C50.0573 23.2206 50.3495 23.1371 50.3495 22.845C50.3495 22.511 50.1825 22.5111 49.2642 22.4693C48.7215 22.4693 48.3042 22.3023 48.3042 21.7596C48.3042 21.3423 48.5963 20.9248 49.4312 20.9248C50.0156 20.9248 50.4748 21.1753 50.6418 21.2588L50.433 21.6761Z" fill="black"/>
<path d="M66.3788 2.09849C66.3788 2.30721 66.2536 2.39069 66.0449 2.39069H65.8362V1.84803H66.0449C66.2953 1.84803 66.3788 1.93152 66.3788 2.09849ZM66.7963 3.22556L66.4206 2.55768C66.5876 2.47418 66.7128 2.34896 66.7128 2.09849C66.7128 1.68106 66.3788 1.59758 66.0866 1.59758H65.5023V3.26731H65.7944V2.64116H66.0866L66.4206 3.26731L66.7963 3.22556ZM67.2554 2.47418C67.2554 1.76455 66.7128 1.22189 66.0866 1.22189C65.4188 1.22189 64.9178 1.76455 64.9178 2.47418C64.9178 3.18381 65.4605 3.72647 66.0866 3.72647C66.7546 3.72647 67.2554 3.18381 67.2554 2.47418ZM67.5476 2.47418C67.5476 3.30904 66.8798 4.01868 66.0866 4.01868C65.2935 4.01868 64.6256 3.30904 64.6256 2.47418C64.6256 1.59758 65.2935 0.929688 66.0866 0.929688C66.8798 0.929688 67.5476 1.63932 67.5476 2.47418Z" fill="black"/>
</g>
<defs>
<clipPath id="clip0_1_795">
<rect width="67.1125" height="22.75" fill="white" transform="translate(0.758728 0.929688)"/>
</clipPath>
</defs>
</svg>
