<svg width="36" height="23" viewBox="0 0 36 23" fill="none" xmlns="http://www.w3.org/2000/svg">
<g clip-path="url(#clip0_1_709)">
<path d="M25.172 4.7622C24.9169 4.7622 24.6981 4.93232 24.5037 5.29687L23.7747 6.52417C22.1707 9.11242 21.1013 10.4248 20.5423 10.4248C20.4087 10.4248 20.3479 8.74789 20.3479 5.39407C20.3479 4.21538 20.0077 3.26757 19.5095 2.84226C19.0598 2.39266 18.6467 2.19823 18.3672 2.19823C18.3429 2.19823 18.2336 2.22253 18.1728 2.22253C18.0878 2.13748 17.9419 2.08887 17.7232 2.08887C16.9333 2.08887 15.8154 2.58708 14.6732 3.54705C14.0899 4.0331 13.5674 4.7865 13.1908 5.72217L12.9962 6.09885C12.6074 6.80365 12.012 7.6907 11.1979 8.73573C10.3837 9.76861 9.52097 10.607 8.64605 11.2511C9.33869 10.2425 9.67893 8.8937 9.67893 7.16819C9.67893 4.65283 8.5367 3.38908 6.26437 3.38908C5.42591 3.38908 4.72113 3.86298 4.11356 4.8108C3.74901 3.63211 3.05638 2.62353 2.04781 2.62353C1.33087 2.63568 0.735443 3.19465 0.735443 3.79008C0.735443 4.20323 0.881261 6.36619 1.20935 10.2547V10.3033C1.37947 16.5977 1.71971 20.2675 2.21793 21.3247C2.30298 21.4341 2.35159 21.4948 2.35159 21.4948C3.14143 22.394 5.01276 21.6649 5.18288 20.547C5.24364 20.3161 5.26795 19.9273 5.26795 19.4291C5.26795 18.0924 5.12213 16.3547 4.81834 14.2039C4.79403 14.0338 4.79403 13.7908 4.79403 13.5113C4.81834 13.487 4.8791 13.487 4.96416 13.487C5.02491 13.487 5.37731 13.5113 5.55958 13.5113C6.33728 13.5113 6.99345 13.4262 8.1114 13.0859C8.69466 12.9401 9.25363 12.6606 9.7883 12.2961C10.724 11.725 11.7325 10.8379 12.656 9.54987C12.7411 10.5706 13.0205 11.0445 13.3609 11.2268C13.7011 11.3969 13.8348 11.3969 14.1993 11.3969C14.6732 11.3969 15.1836 11.0323 15.7668 10.279C16.3501 9.52557 16.8361 8.56561 17.2737 7.37477C17.2737 10.9837 18.2822 12.9644 19.8133 12.9644C21.2106 12.9644 22.9483 11.0323 25.0384 7.14389L25.1842 6.8887C25.3787 6.52417 25.6339 5.83152 25.6339 5.40622C25.6339 5.05383 25.4516 4.7622 25.172 4.7622ZM6.49525 9.52557C6.21576 10.2547 5.62033 10.923 4.70898 11.5063C4.59961 9.35546 4.49025 7.72715 4.38088 6.62137C4.8791 5.44268 5.43806 4.8594 6.0821 4.8594C6.66536 4.8594 6.92055 5.13889 6.92055 6.53632C6.92055 7.81222 6.77473 8.79649 6.49525 9.52557ZM17.383 3.72932C17.2372 4.39765 16.824 5.49128 16.1314 6.97377C15.4388 8.45625 14.9526 9.18534 14.6489 9.18534C14.503 9.18534 14.418 8.93015 14.418 8.43194C14.418 7.2897 14.9283 6.07455 15.4509 5.38192C15.7304 5.01738 16.0342 4.68929 16.3744 4.37335C17.067 3.70502 17.2372 3.61995 17.4073 3.5349C17.383 3.57135 17.383 3.64426 17.383 3.72932Z" fill="black"/>
<path d="M32.1106 2.63553C32.1106 2.80566 32.0863 3.32817 32.0255 4.17878C32.3293 4.17878 32.6695 4.15447 33.0826 4.13017C33.4108 4.10586 33.5931 4.08156 33.7024 4.08156C34.5408 4.08156 34.8811 4.4461 34.954 5.45468V5.6005C34.954 6.22022 34.4801 6.52401 33.5566 6.52401C33.2284 6.52401 32.6817 6.4754 31.8797 6.41465H31.8554L31.7946 8.26167C31.7703 8.79634 31.7703 9.24594 30.9318 9.3553C30.9075 9.3796 30.8711 9.3796 30.7982 9.3796C30.2635 9.3796 29.741 9.01507 29.741 8.43179V8.38319H29.7653C29.6803 7.97004 29.6317 7.26525 29.6317 6.28098L27.894 6.22022C27.5295 6.19592 27.5295 6.19592 27.2014 6.11085C26.9218 6.0015 26.7882 5.77062 26.776 5.35747V5.2238C26.776 4.64053 27.1407 4.19093 27.7239 4.16662C28.052 4.10586 28.7324 4.05726 29.741 4.05726C29.7653 2.23453 30.1906 1.28673 31.029 1.20166C31.746 1.21381 32.1106 1.68771 32.1106 2.63553Z" fill="black"/>
</g>
<defs>
<clipPath id="clip0_1_709">
<rect width="35.1591" height="22.75" fill="white" transform="translate(0.735443 0.179688)"/>
</clipPath>
</defs>
</svg>
