<svg width="21" height="21" viewBox="0 0 21 21" fill="none" xmlns="http://www.w3.org/2000/svg">
<g clip-path="url(#clip0_1_625)">
<g clip-path="url(#clip1_1_625)">
<path d="M15.2 0.0229021H12.61C11.9593 -0.0151588 11.3081 0.0870063 10.7004 0.322482C10.0926 0.557958 9.5426 0.921249 9.08746 1.38776C8.63232 1.85428 8.28272 2.41313 8.06232 3.02649C7.84192 3.63985 7.75587 4.2934 7.80998 4.9429V7.2129H5.19998C5.09124 7.2129 4.98695 7.2561 4.91006 7.33299C4.83317 7.40988 4.78998 7.51416 4.78998 7.6229V10.9129C4.78998 11.0216 4.83317 11.1259 4.91006 11.2028C4.98695 11.2797 5.09124 11.3229 5.19998 11.3229H7.80998V19.6229C7.81238 19.7265 7.85395 19.8254 7.92631 19.8996C7.99867 19.9738 8.09645 20.0179 8.19998 20.0229H11.6C11.7087 20.0229 11.813 19.9797 11.8899 19.9028C11.9668 19.8259 12.01 19.7216 12.01 19.6129V11.3129H15.01C15.1187 11.3129 15.223 11.2697 15.2999 11.1928C15.3768 11.1159 15.42 11.0116 15.42 10.9029V7.6229C15.42 7.51416 15.3768 7.40988 15.2999 7.33299C15.223 7.2561 15.1187 7.2129 15.01 7.2129H12.01V5.2929C12.01 4.3629 12.23 3.9029 13.43 3.9029H15.2C15.3087 3.9029 15.413 3.85971 15.4899 3.78282C15.5668 3.70593 15.61 3.60164 15.61 3.4929V0.432902C15.61 0.324163 15.5668 0.219878 15.4899 0.142988C15.413 0.0660984 15.3087 0.0229021 15.2 0.0229021Z" fill="#191919"/>
</g>
</g>
<defs>
<clipPath id="clip0_1_625">
<rect width="20" height="20" fill="white" transform="translate(0.199951 0.0229492)"/>
</clipPath>
<clipPath id="clip1_1_625">
<rect width="20" height="20" fill="white" transform="translate(0.199951 0.0229492)"/>
</clipPath>
</defs>
</svg>
