<svg width="114" height="23" viewBox="0 0 114 23" fill="none" xmlns="http://www.w3.org/2000/svg">
<g clip-path="url(#clip0_1_695)">
<g clip-path="url(#clip1_1_695)">
<path d="M21.2313 12.6012C21.2313 14.9319 20.5955 18.7471 15.1833 18.7471C12.1598 18.7335 9.22048 17.0795 9.22048 13.1233V11.5547H12.8241V12.3737C12.8241 14.1254 13.262 15.3983 15.1275 15.3983C17.2319 15.3983 17.2319 13.7034 17.2319 12.4306V0.179688H21.2313V12.6012ZM30.9956 11.88C30.3882 12.4169 29.1165 12.4454 27.9995 12.6421C26.8836 12.8696 25.8667 13.2507 25.8667 14.5782C25.8667 15.9204 26.912 16.2605 28.07 16.2605C30.883 16.2605 30.9956 14.0276 30.9956 13.2359V11.88ZM22.6726 9.22281C22.8705 5.84557 25.894 4.82865 28.848 4.82865C31.462 4.82865 34.6129 5.40878 34.6129 8.55965V15.3847C34.6129 16.5847 34.7403 17.7723 35.0656 18.308H31.4051C31.2704 17.896 31.1848 17.4695 31.1503 17.0374C30.006 18.2239 28.3396 18.6618 26.7277 18.6618C24.2412 18.6618 22.2631 17.4185 22.2631 14.734C22.2631 11.7663 24.496 11.0462 26.7277 10.7493C28.9322 10.424 30.9956 10.4945 30.9956 9.02489C30.9956 7.47106 29.9355 7.2447 28.6638 7.2447C27.2931 7.2447 26.4036 7.81004 26.275 9.22395H22.6726V9.22281ZM42.8086 19.962C42.0169 22.0675 40.7736 22.9297 38.287 22.9297C37.5522 22.9297 36.8174 22.8728 36.0825 22.8023V19.8357C36.7605 19.8926 37.4817 19.9915 38.1869 19.9631C39.4313 19.8368 39.8408 18.5367 39.4313 17.505L34.8108 5.19606H38.6681L41.6358 14.1823H41.6927L44.5467 5.18241H48.2777L42.8074 19.9608L42.8086 19.962ZM96.0095 14.0413C96.0379 15.611 97.3517 16.2457 98.7793 16.2457C99.8258 16.2457 101.14 15.8362 101.14 14.5645C101.14 13.4759 99.6415 13.0949 97.056 12.5295C94.9778 12.0779 92.887 11.3431 92.887 9.02603C92.887 5.67609 95.7831 4.815 98.5961 4.815C101.464 4.815 104.106 5.77505 104.389 9.01124H100.955C100.856 7.61211 99.7825 7.23105 98.496 7.23105C97.6907 7.23105 96.4906 7.38575 96.4906 8.4459C96.4906 9.74606 98.5245 9.91555 100.574 10.3956C102.679 10.8767 104.742 11.64 104.742 14.0697C104.742 17.5175 101.747 18.6345 98.7508 18.6345C95.6989 18.6345 92.7312 17.489 92.5765 14.0128H96.0095V14.0413ZM65.8839 12.6012C65.8839 14.9319 65.2469 18.7471 59.8358 18.7471C56.8123 18.7471 53.873 17.0943 53.873 13.137V11.5547H57.4755V12.3737C57.4755 14.1254 57.9134 15.3983 59.7789 15.3983C61.8845 15.3983 61.8845 13.7034 61.8845 12.4306V0.179688H65.8839V12.6012ZM75.6482 11.88C75.0396 12.4169 73.7679 12.4306 72.652 12.6421C71.5361 12.8696 70.5181 13.2507 70.5181 14.5645C70.5181 15.9068 71.5646 16.2457 72.7226 16.2457C75.5345 16.2457 75.6482 14.0128 75.6482 13.2223V11.88ZM67.324 9.22281C67.5219 5.84557 70.5454 4.82865 73.4983 4.82865C76.1123 4.82865 79.2643 5.40878 79.2643 8.55965V15.3847C79.2643 16.5847 79.3906 17.7723 79.7159 18.308H76.0566C75.9217 17.8961 75.8362 17.4695 75.8018 17.0374C74.6574 18.2239 72.9899 18.6618 71.3792 18.6618C68.8926 18.6618 66.9145 17.4185 66.9145 14.734C66.9145 11.7663 69.1463 11.0462 71.3792 10.7493C73.5836 10.424 75.6471 10.4945 75.6471 9.02489C75.6471 7.47106 74.5869 7.2447 73.3152 7.2447C71.9445 7.2447 71.0538 7.81004 70.9264 9.22395H67.324V9.22281ZM87.4464 19.962C86.6558 22.0675 85.4114 22.9297 82.9248 22.9297C82.19 22.9297 81.4551 22.8728 80.7203 22.8023V19.8357C81.3983 19.8926 82.1194 19.9915 82.8258 19.9631C84.0691 19.8368 84.4798 18.5367 84.0691 17.505L79.4497 5.18241H83.307L86.2759 14.1687H86.3316L89.2004 5.18241H92.9314L87.4464 19.9608V19.962Z" fill="black"/>
</g>
</g>
<defs>
<clipPath id="clip0_1_695">
<rect width="113.77" height="22.75" fill="white" transform="translate(0.109985 0.179688)"/>
</clipPath>
<clipPath id="clip1_1_695">
<rect width="95.55" height="22.75" fill="white" transform="translate(9.22048 0.179688)"/>
</clipPath>
</defs>
</svg>
