<svg width="68" height="13" viewBox="0 0 68 13" fill="none" xmlns="http://www.w3.org/2000/svg">
<g clip-path="url(#clip0_1_137)">
<g clip-path="url(#clip1_1_137)">
<path d="M47.5375 2.88025H46.5632C44.5966 2.88025 43.1605 3.3415 43.1605 5.37663V6.77838C43.1605 8.79607 44.5966 9.27475 46.5632 9.27475H47.5375C48.478 9.27475 49.2982 9.13807 49.8973 8.79607V9.27475H50.9402V5.37663C50.9402 3.34207 49.5041 2.88025 47.5375 2.88025ZM49.8973 6.71032C49.8973 8.14638 49.0591 8.42032 47.8452 8.42032H46.2381C45.0416 8.42032 44.1866 8.14638 44.1866 6.71032V5.42782C44.1866 3.99175 45.0247 3.71782 46.2381 3.71782H47.8452C49.0422 3.71782 49.8973 3.99175 49.8973 5.42782V6.71032ZM38.9377 2.86338H38.8004C37.5353 2.86338 36.5267 3.05125 35.9451 3.71838C35.364 3.05125 34.3211 2.86338 33.056 2.86338H33.0391C32.0811 2.86338 31.2773 3.08557 30.6962 3.52994V2.91457H29.7213V9.22357H30.7648V5.41094C30.7648 3.97488 31.6024 3.70094 32.8163 3.70094H33.3805C34.5776 3.70094 35.432 3.97488 35.432 5.41094V9.20613H36.4755V5.41094C36.4755 3.97488 37.3131 3.70094 38.527 3.70094H39.2622C40.4762 3.70094 41.3138 3.97488 41.3138 5.41094V9.20613H42.3578V5.34232C42.3409 3.32463 40.9042 2.86338 38.9377 2.86338ZM13.5809 2.88025H12.4699C10.5034 2.88025 9.06724 3.3415 9.06724 5.37663V6.72719C9.06724 8.74488 10.5034 9.22357 12.4699 9.22357H13.5815C15.5475 9.22357 16.9836 8.74488 16.9836 6.72719V5.37663C16.9836 3.34207 15.5475 2.88025 13.5809 2.88025ZM15.9407 6.65913C15.9407 8.09519 15.1025 8.36913 13.8892 8.36913H12.1622C10.9483 8.36913 10.1102 8.09519 10.1102 6.65913V5.42782C10.1102 3.99175 10.9483 3.71782 12.1622 3.71782H13.8892C15.1031 3.71782 15.9407 3.99175 15.9407 5.42782V6.65913ZM4.94677 2.88025H3.83523C1.8861 2.88025 0.449982 3.3415 0.449982 5.35976V12.13H1.4929V8.72744C2.09142 9.06944 2.91214 9.20613 3.85267 9.20613H4.96365C6.93022 9.20613 8.36634 8.728 8.36634 6.71032V5.35976C8.34946 3.34207 6.91335 2.88025 4.94677 2.88025ZM7.32343 6.65913C7.32343 8.09519 6.48527 8.36913 5.27135 8.36913H3.52753C2.31361 8.36913 1.47602 8.09519 1.47602 6.65913V5.42782C1.47602 3.99175 2.31418 3.71782 3.52753 3.71782H5.25447C6.45152 3.71782 7.30599 3.99175 7.30599 5.42782V6.65913H7.32343ZM55.9157 2.88025H55.1973C54.2231 2.88025 53.3849 3.10244 52.7695 3.58113V3.0175H51.7952V9.18982H52.8381V5.42782C52.8381 3.99175 53.6757 3.71782 54.8896 3.71782H56.2403C57.4542 3.71782 58.2923 3.99175 58.2923 5.42782V9.17238H59.3352V5.37663C59.3178 3.34207 57.8823 2.88025 55.9157 2.88025ZM64.8406 5.59938H62.1051C61.0791 5.59938 60.9081 5.308 60.9081 4.81188V4.59025C60.9081 3.88938 61.2158 3.75213 62.6181 3.75213H64.4643C65.2682 3.75213 65.8155 3.769 66.0202 4.16275L66.9096 3.71838C66.67 3.22225 66.0546 2.89713 64.5161 2.89713H62.8746C60.4468 2.89713 59.8995 3.44444 59.8995 4.45357V4.81244C59.8995 5.97513 60.4125 6.45382 61.7974 6.45382H64.9605C66.1401 6.45382 66.2942 6.77838 66.2942 7.37688V7.42807C66.2942 8.35169 65.8324 8.40288 64.3451 8.40288H62.1051C61.5066 8.40288 61.1134 8.28307 60.9081 8.02657L60.0193 8.43719C60.4637 9.24044 61.5066 9.24044 62.6181 9.24044H64.5498C65.7469 9.24044 67.2685 9.17238 67.2685 7.46294V7.4455C67.3197 5.75238 66.3279 5.59882 64.8406 5.59882V5.59938ZM21.2751 2.86338C20.3351 2.86338 19.5144 2.98319 18.9159 3.30775V2.86338H17.8729V9.18926H18.8984V5.42782C18.8984 3.99175 19.7366 3.71782 20.9505 3.71782C20.9505 3.71782 22.489 3.73525 22.6943 4.12844L23.5493 3.68407C23.2416 2.91457 21.2751 2.86338 21.2751 2.86338ZM28.0461 8.386C28.4568 8.386 29.0035 8.31738 29.0035 8.31738V9.20613C28.9867 9.20613 28.6447 9.27475 28.2171 9.27475C27.6529 9.27475 24.8656 9.36025 24.8656 7.189V3.75213L24.8488 3.71838H24.0961V2.88025H24.8488V0.880005H25.926V2.88025H28.6103V3.71838H25.926V6.89819C25.926 7.87301 26.4041 8.386 28.0461 8.386Z" fill="black"/>
</g>
</g>
<defs>
<clipPath id="clip0_1_137">
<rect width="66.94" height="11.25" fill="white" transform="translate(0.449982 0.880005)"/>
</clipPath>
<clipPath id="clip1_1_137">
<rect width="66.94" height="11.25" fill="white" transform="translate(0.449982 0.880005)"/>
</clipPath>
</defs>
</svg>
