<svg width="57" height="15" viewBox="0 0 57 15" fill="none" xmlns="http://www.w3.org/2000/svg">
<g clip-path="url(#clip0_1_145)">
<g clip-path="url(#clip1_1_145)">
<path d="M7.18941 8.12097C7.18941 9.50399 6.81215 11.7679 3.60107 11.7679C1.80723 11.7598 0.0633392 10.7783 0.0633392 8.43078V7.49999H2.20136V7.98598C2.20136 9.02544 2.46119 9.78073 3.568 9.78073C4.81653 9.78073 4.81653 8.77502 4.81653 8.01972V0.750244H7.18941V8.12097ZM12.9826 7.69304C12.6222 8.01163 11.8677 8.0285 11.2049 8.14527C10.5429 8.28027 9.93955 8.50638 9.93955 9.29408C9.93955 10.0905 10.5598 10.2924 11.2468 10.2924C12.9158 10.2924 12.9826 8.96739 12.9826 8.49761V7.69304ZM8.04448 6.1163C8.16191 4.11229 9.95574 3.50887 11.7084 3.50887C13.2593 3.50887 15.1287 3.8531 15.1287 5.72278V9.77263C15.1287 10.4847 15.2043 11.1894 15.3973 11.5073H13.2255C13.1456 11.2629 13.0948 11.0098 13.0744 10.7534C12.3954 11.4574 11.4067 11.7172 10.4504 11.7172C8.97514 11.7172 7.80152 10.9795 7.80152 9.38655C7.80152 7.62554 9.12631 7.19828 10.4504 7.02211C11.7584 6.82907 12.9826 6.87092 12.9826 5.99885C12.9826 5.07683 12.3536 4.94251 11.5991 4.94251C10.7858 4.94251 10.2581 5.27798 10.1818 6.11697H8.04448V6.1163ZM19.9912 12.4887C19.5215 13.7381 18.7839 14.2497 17.3086 14.2497C16.8726 14.2497 16.4366 14.216 16.0007 14.1741V12.4138C16.4029 12.4476 16.8308 12.5063 17.2492 12.4894C17.9875 12.4145 18.2305 11.643 17.9875 11.0308L15.2461 3.72688H17.5347L19.2954 9.05919H19.3292L21.0224 3.71878H23.236L19.9905 12.4881L19.9912 12.4887ZM51.5554 8.97549C51.5723 9.90695 52.3518 10.2836 53.1987 10.2836C53.8196 10.2836 54.5991 10.0406 54.5991 9.28598C54.5991 8.64003 53.7103 8.41391 52.1763 8.07845C50.9433 7.81048 49.7029 7.37445 49.7029 5.99952C49.7029 4.01172 51.4211 3.50077 53.0901 3.50077C54.7915 3.50077 56.3592 4.07045 56.5273 5.99075H54.4898C54.4311 5.16053 53.794 4.93441 53.0307 4.93441C52.5529 4.93441 51.8409 5.02621 51.8409 5.65529C51.8409 6.42678 53.0476 6.52735 54.2637 6.81219C55.5122 7.09771 56.7365 7.55062 56.7365 8.99236C56.7365 11.0382 54.9595 11.701 53.1819 11.701C51.3712 11.701 49.6104 11.0213 49.5186 8.95862H51.5554V8.97549ZM33.6819 8.12097C33.6819 9.50399 33.3039 11.7679 30.0935 11.7679C28.2997 11.7679 26.5558 10.7871 26.5558 8.43888V7.49999H28.6931V7.98598C28.6931 9.02544 28.953 9.78073 30.0598 9.78073C31.309 9.78073 31.309 8.77502 31.309 8.01972V0.750244H33.6819V8.12097ZM39.475 7.69304C39.114 8.01163 38.3595 8.01972 37.6974 8.14527C37.0353 8.28027 36.4313 8.50638 36.4313 9.28598C36.4313 10.0824 37.0522 10.2836 37.7392 10.2836C39.4075 10.2836 39.475 8.95861 39.475 8.48951V7.69304ZM34.5363 6.1163C34.6537 4.11229 36.4475 3.50887 38.1995 3.50887C39.7504 3.50887 41.6205 3.8531 41.6205 5.72278V9.77263C41.6205 10.4847 41.6954 11.1894 41.8884 11.5073H39.7173C39.6373 11.2629 39.5866 11.0098 39.5661 10.7534C38.8872 11.4574 37.8978 11.7172 36.9422 11.7172C35.4669 11.7172 34.2933 10.9795 34.2933 9.38655C34.2933 7.62554 35.6174 7.19828 36.9422 7.02211C38.2501 6.82907 39.4744 6.87092 39.4744 5.99885C39.4744 5.07683 38.8454 4.94251 38.0909 4.94251C37.2776 4.94251 36.7492 5.27798 36.6736 6.11697H34.5363V6.1163ZM46.4749 12.4887C46.0059 13.7381 45.2675 14.2497 43.7922 14.2497C43.3563 14.2497 42.9203 14.216 42.4843 14.1741V12.4138C42.8866 12.4476 43.3144 12.5063 43.7335 12.4894C44.4712 12.4145 44.7148 11.643 44.4712 11.0308L41.7305 3.71878H44.019L45.7804 9.05109H45.8135L47.5156 3.71878H49.7292L46.4749 12.4881V12.4887Z" fill="black"/>
</g>
</g>
<defs>
<clipPath id="clip0_1_145">
<rect width="56.69" height="13.5" fill="white" transform="translate(0.0633392 0.75)"/>
</clipPath>
<clipPath id="clip1_1_145">
<rect width="56.69" height="13.4995" fill="white" transform="translate(0.0633392 0.750244)"/>
</clipPath>
</defs>
</svg>
