<svg width="43" height="17" viewBox="0 0 43 17" fill="none" xmlns="http://www.w3.org/2000/svg">
<g clip-path="url(#clip0_1_149)">
<g clip-path="url(#clip1_1_149)">
<path d="M19.1227 5.49053C19.2172 5.53103 19.3117 5.57153 19.4055 5.58503C19.473 5.59853 19.554 5.58503 19.6342 5.57153C19.6089 5.60126 19.5767 5.62442 19.5405 5.63903C19.419 5.67878 19.2705 5.62553 19.1227 5.49053ZM19.6882 5.94803C19.944 5.84078 20.1195 5.54453 20.2402 5.16803C20.2807 5.18078 20.3348 5.19428 20.3753 5.20778C20.4158 5.39603 20.4428 5.58503 20.4428 5.74628C20.4428 5.81378 20.4428 5.88128 20.4293 5.94878C20.3753 6.25778 20.2133 6.40628 19.8908 6.39278C19.0958 6.37928 18.6247 6.13703 18.5032 5.70578C18.4747 5.6143 18.461 5.51884 18.4627 5.42303C18.4627 5.38328 18.4628 5.32928 18.4763 5.28803C18.4898 5.28803 18.5032 5.30228 18.5167 5.30228C19.0155 6.02978 19.419 6.06878 19.6882 5.94803ZM20.9813 4.73678H21.0082C20.9645 4.79458 20.9072 4.84075 20.8414 4.87122C20.7756 4.90169 20.7034 4.91553 20.631 4.91153L20.5905 4.79078C20.739 4.77728 20.8605 4.76378 20.9805 4.73678H20.9813ZM18.7327 4.48103C18.9075 4.52153 19.0823 4.53428 19.2443 4.53428C19.2983 4.56128 19.365 4.58828 19.4325 4.61528C19.527 4.72328 19.635 4.83053 19.7692 4.91153C19.7957 4.93725 19.8282 4.95583 19.8637 4.96553C19.6272 5.05313 19.3737 5.08546 19.1227 5.06003C18.9506 4.92457 18.8086 4.75471 18.7058 4.56128C18.7104 4.53335 18.72 4.50628 18.7327 4.48103ZM21.5737 2.17853C21.5737 2.12453 21.5603 2.08403 21.5603 2.03003C21.9773 2.39378 22.233 2.86478 22.233 3.28253C22.233 3.35003 22.2195 3.41753 22.2195 3.48503C22.152 3.79403 21.9367 4.03628 21.5872 4.19753C21.603 4.07712 21.612 3.95594 21.6143 3.83453C21.6143 3.51128 21.5603 3.16103 21.4658 2.83778C21.5333 2.60903 21.5737 2.39378 21.5737 2.17778V2.17853ZM21.21 3.36353C21.237 3.52478 21.2505 3.68603 21.2505 3.84803C21.2505 4.02278 21.237 4.18478 21.1965 4.33253C21.102 4.35953 21.0218 4.37303 20.9138 4.40003C20.8598 4.41353 20.8058 4.41353 20.7525 4.42703C20.7811 4.29906 20.7945 4.16814 20.7922 4.03703C20.7922 3.98228 20.7923 3.92903 20.7788 3.87503C20.9543 3.72653 21.102 3.55178 21.21 3.36353ZM20.0385 4.37228V4.41278C20.0115 4.41278 19.998 4.39928 19.971 4.39928C19.996 4.3988 20.02 4.3892 20.0385 4.37228ZM20.4428 4.16978C20.4428 4.22453 20.4293 4.26428 20.4293 4.31828C20.4158 4.30478 20.4157 4.27778 20.4022 4.26428V4.21103C20.4157 4.18403 20.4293 4.17053 20.4428 4.17053V4.16978ZM20.3753 3.51053C20.3888 3.59153 20.4158 3.65903 20.4293 3.73928C20.4158 3.75278 20.4022 3.75278 20.4022 3.76628C20.3887 3.68528 20.3888 3.60503 20.3753 3.51053ZM20.6978 1.58528C20.685 1.57178 20.6715 1.57178 20.658 1.55828C20.8192 1.59878 20.9948 1.66553 21.156 1.74653C21.1965 1.88153 21.2235 2.01653 21.2235 2.16428V2.21753C21.075 1.94828 20.8995 1.73303 20.6978 1.58528ZM19.7423 1.58528C19.9845 1.59878 20.2402 1.69253 20.496 1.86803C20.7517 2.04278 20.9535 2.40653 21.0885 2.82353C21.002 3.04429 20.8793 3.2491 20.7255 3.42953C20.6985 3.30878 20.658 3.20078 20.6175 3.06653C20.4116 2.49579 20.0297 2.0052 19.527 1.66553C19.5945 1.63928 19.662 1.61228 19.7423 1.58528ZM19.9305 2.99903C19.971 3.17378 20.0115 3.36278 20.025 3.55103C19.944 3.41603 19.8637 3.29528 19.7827 3.17378C19.8367 3.11978 19.89 3.05303 19.9305 2.99903ZM19.5135 3.92828V3.88778C19.5135 3.76628 19.5405 3.64553 19.5945 3.51053C19.7017 3.68528 19.8098 3.86078 19.9035 4.03553C19.7896 4.07951 19.6728 4.11559 19.554 4.14353C19.5393 4.072 19.5258 4.00024 19.5135 3.92828ZM19.176 3.73928C19.176 3.79328 19.1632 3.84728 19.1632 3.88778V3.94178C19.1632 3.99503 19.1768 4.04903 19.1768 4.10303C19.1228 4.06253 19.0552 4.02203 19.002 3.98153C19.0646 3.90402 19.123 3.82315 19.1768 3.73928H19.176ZM18.4635 3.96803V3.94178C18.5033 3.98153 18.531 4.02203 18.5707 4.06253C18.5461 4.04754 18.5184 4.03831 18.4897 4.03553C18.4762 4.00853 18.4627 3.99503 18.4627 3.96803H18.4635ZM19.1902 1.89503C19.446 2.04278 19.6882 2.23103 19.89 2.50103C19.7827 2.58128 19.6477 2.67578 19.5135 2.81003C19.3257 2.57665 19.1084 2.36866 18.867 2.19128C18.948 2.08328 19.0695 1.98878 19.1895 1.89503H19.1902ZM18.6652 2.47403C18.867 2.62178 19.0822 2.82353 19.2712 3.06653C19.0866 3.27987 18.9155 3.50456 18.759 3.73928C18.6158 3.59867 18.4974 3.43486 18.4088 3.25478C18.423 3.02603 18.5032 2.74328 18.6652 2.47403ZM18.153 2.31203V2.25803C18.1935 2.25803 18.234 2.27153 18.261 2.27153C18.2205 2.33903 18.1935 2.40653 18.1665 2.48753C18.1538 2.43353 18.1537 2.36603 18.1537 2.31203H18.153ZM17.4667 2.82353C17.574 2.56853 17.6955 2.43353 17.8035 2.35253C17.8035 2.63528 17.871 2.91803 17.9782 3.20078C17.9514 3.34751 17.9378 3.49636 17.9377 3.64553V3.76628C17.8027 3.67178 17.6685 3.57803 17.5342 3.45653C17.4532 3.38903 17.3857 3.32153 17.3317 3.26828C17.3599 3.11543 17.4052 2.96624 17.4667 2.82353ZM17.8972 4.60103C17.6955 4.43978 17.4262 4.15703 17.3452 3.75353C17.574 3.94103 17.79 4.10303 18.0052 4.21103C18.0457 4.39853 18.0997 4.58753 18.1935 4.74953C18.207 4.77653 18.2205 4.79003 18.234 4.81703C18.115 4.75611 18.0022 4.68377 17.8972 4.60103ZM18.261 1.73303C18.288 1.67903 18.315 1.63928 18.342 1.58528C18.4627 1.59878 18.5708 1.62578 18.6923 1.66553C18.6004 1.75466 18.5191 1.85406 18.45 1.96178C18.4291 1.94923 18.4063 1.94011 18.3825 1.93478C18.3298 1.91948 18.2754 1.91066 18.2205 1.90853C18.2205 1.85453 18.234 1.78703 18.261 1.73303ZM16.821 2.32553C16.821 2.25803 16.8337 2.19053 16.8607 2.12303C16.9822 1.80053 17.4127 1.58528 17.9647 1.57178C17.9647 1.58528 17.9512 1.59878 17.9512 1.59878C17.9015 1.71051 17.8655 1.82787 17.844 1.94828C17.601 2.02928 17.3452 2.23103 17.1435 2.68928C17.1165 2.77028 17.076 2.85053 17.0625 2.91803C16.9012 2.70278 16.821 2.50103 16.821 2.32553ZM19.446 0.992778C19.971 0.952278 20.4022 1.03328 20.6985 1.20803C20.3652 1.13165 20.0185 1.13654 19.6875 1.22228C19.4463 1.22465 19.2099 1.28951 19.0012 1.41053C18.8686 1.35949 18.7337 1.31445 18.597 1.27553C18.8517 1.11214 19.1434 1.01518 19.4453 0.993528L19.446 0.992778ZM19.419 0.642528C18.8805 0.683028 18.4493 0.884778 18.1665 1.22153H17.9918C17.2785 1.22153 16.6995 1.53128 16.524 2.00228C16.4884 2.10635 16.4702 2.21555 16.47 2.32553C16.47 2.59553 16.578 2.95853 16.9687 3.38903V3.49703C16.9687 4.02203 17.211 4.50728 17.682 4.88453C17.8305 5.00453 17.9917 5.09903 18.1537 5.18003C18.1381 5.27352 18.1291 5.36801 18.1267 5.46278C18.1267 5.58428 18.1395 5.70503 18.18 5.82653C18.3555 6.41903 18.9345 6.74153 19.9035 6.76928C20.4023 6.78278 20.712 6.51353 20.7922 6.02828C20.8057 5.96078 20.8057 5.88053 20.8057 5.79953C20.8057 5.63828 20.7787 5.46278 20.7517 5.27453C21.0615 5.24753 21.2505 5.07203 21.3577 4.91078C21.4187 4.82499 21.4643 4.72934 21.4927 4.62803C22.2877 4.34528 22.5158 3.86078 22.5698 3.56453C22.5833 3.48353 22.5968 3.38903 22.5968 3.30878C22.5968 2.70278 22.2068 2.04278 21.5603 1.59878C21.5198 1.57178 21.4792 1.55828 21.4387 1.53128C21.2362 1.10003 20.739 0.534528 19.419 0.642528ZM7.2195 9.12653C7.206 8.52053 6.93675 8.25128 6.372 8.25128C6.02175 8.25128 3.4095 8.15678 2.39925 7.95503C2.20391 7.91057 2.02954 7.80094 1.90481 7.64417C1.78008 7.48741 1.71243 7.29286 1.713 7.09253C1.713 6.62153 2.0625 6.25778 2.53425 6.21803C2.66925 6.20453 3.00525 6.19103 3.396 6.17753C4.5405 6.13703 5.5095 6.08303 5.658 6.02903C5.83275 5.97503 5.94075 5.81378 5.94075 5.61203C5.94311 5.50515 5.92409 5.39887 5.88481 5.29944C5.84552 5.20001 5.78677 5.10944 5.712 5.03303C5.32125 4.64303 4.5135 4.64303 3.975 4.64303H3.8805C2.898 4.64303 1.87425 4.80428 0.904498 5.11328C0.662248 5.20778 0.487498 5.39603 0.460498 5.62553C0.434023 5.84429 0.420499 6.06442 0.419998 6.28478C0.419998 6.52703 0.433498 7.05203 0.446998 7.50953C0.460498 7.83278 0.460498 8.11553 0.460498 8.22353C0.460498 9.08528 1.34925 9.61028 2.1705 9.61028H5.268C5.793 9.61028 6.02175 9.86603 6.02175 10.4578C6.02175 10.6738 5.96775 11.0503 5.77875 11.1583C5.658 11.2258 4.24425 11.1583 3.3015 11.105C2.7225 11.078 2.2245 11.051 1.9815 11.051C1.578 11.051 0.527998 11.051 0.527998 11.8318C0.527998 12.0343 0.621748 12.209 0.782998 12.317C1.28175 12.6395 3.3285 12.707 4.002 12.707C4.782 12.707 6.6405 12.6665 7.09875 12.2495C7.2465 12.1145 7.3275 11.8993 7.3275 11.6705C7.3275 10.9835 7.287 10.283 7.2465 9.61028L7.2195 9.12578V9.12653ZM17.6955 11.0788C17.6955 9.54353 17.493 7.59128 17.3317 6.23153C17.2642 5.67878 16.7797 5.06003 16.1737 5.01953L15.5137 4.97903C14.9586 4.93198 14.402 4.90471 13.845 4.89728C13.3875 4.89728 13.185 5.39528 13.065 5.69228L13.0372 5.77253C12.9165 6.06878 12.8625 6.41903 12.822 6.68828C12.768 7.05203 12.768 7.42853 12.7815 7.85978V9.86678C12.7815 9.96128 12.7815 10.271 12.7005 10.3513C12.687 10.3648 12.6735 10.3648 12.6607 10.3648C12.5662 10.3648 12.4582 10.1495 12.4447 10.0153C12.405 9.79928 12.4177 9.58403 12.4177 9.36878V9.20678C12.4177 8.08928 12.3375 6.51428 12.1087 5.74628C12.0731 5.60726 12.0023 5.47974 11.9031 5.37598C11.8039 5.27222 11.6798 5.1957 11.5425 5.15378C11.2875 5.06003 9.927 4.84403 9.51 4.84403C8.41875 4.84403 8.2575 6.36653 8.163 7.26803C8.1495 7.38953 8.136 7.49678 8.1225 7.59053C8.0955 7.86053 8.136 10.7015 8.2035 11.846C8.244 12.398 8.526 12.7213 8.97075 12.7213C9.18675 12.7213 9.456 12.6268 9.52275 12.3845C9.64859 11.9885 9.71235 11.5753 9.71175 11.1598C9.71175 10.7285 9.67125 10.2845 9.64425 9.83978C9.59677 9.38347 9.56974 8.92526 9.56325 8.46653V8.25128C9.54975 7.73903 9.53625 6.77003 9.873 6.41978C9.9112 6.37549 9.95888 6.34036 10.0125 6.31699C10.0661 6.29362 10.1243 6.28261 10.1827 6.28478C10.6545 6.28478 10.9365 6.85028 10.9365 7.25453V9.24728C10.9365 9.82628 10.95 10.3243 11.004 10.7825C11.112 11.9945 12.1485 11.9945 13.0515 11.9945C13.347 11.9945 14.2492 11.9945 14.2492 11.0923C14.2492 10.4998 14.2357 9.89378 14.2222 9.31478C14.2087 8.73578 14.1952 8.12978 14.1952 7.53728C14.1952 6.97178 14.559 6.36578 15.2325 6.36578C15.636 6.36578 16.1212 6.62153 16.1745 7.02578C16.188 7.16078 16.2015 7.28078 16.2015 7.38953C16.2015 7.45703 16.215 7.51028 16.215 7.57703L16.269 8.84303C16.3095 9.67853 16.35 10.553 16.35 11.3885C16.35 12.0208 16.605 12.398 17.0497 12.398C17.1982 12.4008 17.3423 12.3481 17.454 12.2503C17.7097 11.9945 17.6962 11.4958 17.6962 11.1328L17.6955 11.0788ZM23.8222 9.24728C22.8255 9.24728 22.4625 9.12578 22.4625 8.06228C22.4625 7.92728 22.4752 7.77953 22.4752 7.63178C22.5022 7.28153 23.1893 7.18703 23.445 7.18703C24.4553 7.18703 24.9 7.25453 24.9 8.37203C24.9127 9.26078 24.6165 9.24728 23.8222 9.24728ZM25.4377 13.691C25.4377 14.351 24.684 14.4185 24.1853 14.4185C23.3243 14.4185 22.4625 14.5123 22.4625 13.4083C22.4625 12.7618 23.58 12.6268 24.078 12.6268C24.765 12.6268 25.4377 12.9095 25.4377 13.691ZM26.448 4.03628C26.3805 4.03628 26.2995 4.04978 26.232 4.06328C25.0073 4.50803 25.0207 5.96228 24.2932 5.96228C24.024 5.96228 23.7953 5.78678 23.5125 5.78678C22.6373 5.78678 21.3308 5.93528 21.3308 7.07978C21.3308 7.64528 21.3577 8.18378 21.3577 8.73578C21.3577 9.09953 21.4118 10.1495 21.7755 10.3243C22.1123 10.4728 23.0145 10.3918 23.0145 10.9168C23.0162 10.9556 23.0084 10.9943 22.992 11.0296C22.9755 11.0648 22.9509 11.0956 22.92 11.1193C22.2735 11.6173 21.1965 10.8493 21.1965 12.1963C21.1965 12.6268 21.3173 14.1755 21.3173 14.5123C21.3173 14.9968 21.3045 15.6568 21.9232 15.6568C22.1257 15.6568 22.314 15.6298 22.5158 15.6028C23.607 15.5488 24.6975 15.5083 25.8015 15.455C26.5965 15.428 26.946 14.7005 26.946 13.9873C26.946 13.4758 26.6092 12.3845 26.421 11.8865C26.3933 11.809 26.3488 11.7385 26.2905 11.6803C26.2323 11.622 26.1618 11.5774 26.0843 11.5498C25.6268 11.3885 24.8993 11.5768 24.8993 10.8763C24.8993 10.136 26.259 10.661 26.34 9.94778C26.3535 9.78578 26.367 9.61028 26.367 9.43628C26.367 8.64128 26.1247 7.88753 26.1247 7.02578C26.1247 6.81053 26.0977 6.60803 26.0977 6.39278C26.0977 5.88128 26.973 5.38328 26.973 4.65578C26.973 4.34603 26.7975 4.03628 26.448 4.03628ZM30.03 9.24728C29.0325 9.24728 28.6695 9.12578 28.6695 8.06228C28.6695 7.92728 28.683 7.77953 28.683 7.63178C28.71 7.28153 29.397 7.18703 29.6528 7.18703C30.6623 7.18703 31.107 7.25453 31.107 8.37203C31.1205 9.26078 30.825 9.24728 30.03 9.24728ZM31.6455 13.691C31.6455 14.351 30.891 14.4185 30.393 14.4185C29.5313 14.4185 28.6695 14.5123 28.6695 13.4083C28.6695 12.7618 29.787 12.6268 30.2857 12.6268C30.972 12.6268 31.6455 12.9095 31.6455 13.691ZM32.655 4.03628C32.5875 4.03628 32.5073 4.04978 32.4398 4.06328C31.2143 4.50803 31.2278 5.96228 30.501 5.96228C30.231 5.96228 30.0023 5.78678 29.7195 5.78678C28.845 5.78678 27.5385 5.93528 27.5385 7.07978C27.5385 7.64528 27.5655 8.18378 27.5655 8.73578C27.5655 9.09953 27.6195 10.1495 27.9825 10.3243C28.32 10.4728 29.2215 10.3918 29.2215 10.9168C29.2232 10.9556 29.2154 10.9943 29.199 11.0296C29.1825 11.0648 29.1579 11.0956 29.127 11.1193C28.4813 11.6173 27.4035 10.8493 27.4035 12.1963C27.4035 12.6268 27.525 14.1755 27.525 14.5123C27.525 14.9968 27.5115 15.6568 28.131 15.6568C28.3335 15.6568 28.521 15.6298 28.7235 15.6028C29.814 15.5488 30.9045 15.5083 32.0085 15.455C32.8035 15.428 33.153 14.7005 33.153 13.9873C33.153 13.4758 32.817 12.3845 32.628 11.8865C32.6024 11.8078 32.5585 11.7363 32.5 11.6778C32.4415 11.6192 32.37 11.5754 32.2912 11.5498C31.8337 11.3885 31.1063 11.5768 31.1063 10.8763C31.1063 10.136 32.4668 10.661 32.5478 9.94778C32.5613 9.78578 32.574 9.61028 32.574 9.43628C32.574 8.64128 32.3318 7.88753 32.3318 7.02578C32.3318 6.81053 32.3055 6.60803 32.3055 6.39278C32.3055 5.88128 33.18 5.38328 33.18 4.65578C33.18 4.34603 33.0053 4.03628 32.655 4.03628ZM35.3888 11.1455C35.2943 10.7555 35.2808 10.298 35.2808 9.93428C35.2538 8.27753 35.2133 6.56753 35.133 4.89803C35.106 4.50803 34.7828 3.94253 34.2848 3.94253C33.9075 3.94253 33.6653 4.42703 33.6653 4.77728C33.6653 4.99253 33.7058 5.22128 33.759 5.45003L33.7995 5.69228C34.0958 7.71203 34.0958 9.66503 34.0958 11.7253C34.0958 12.1693 34.2713 12.8825 34.7423 12.8825C35.1465 12.8825 35.739 12.533 35.739 12.0478C35.739 11.873 35.6445 11.6848 35.55 11.4958C35.477 11.3892 35.4225 11.271 35.3888 11.1463V11.1455ZM38.2568 6.64853C38.4315 6.44603 38.8358 6.48728 39.0915 6.48728C39.5625 6.48728 39.765 6.67553 39.765 7.14728C39.765 7.80728 39.1185 7.76603 38.6205 7.76603C38.364 7.76603 38.001 7.75253 38.001 7.40303C38.001 7.17353 38.0955 6.82403 38.2568 6.64853ZM41.5418 10.742C40.6395 10.3108 39.2393 10.4195 38.2568 10.3243C37.9605 10.3108 37.812 10.0153 37.812 9.73178C37.812 9.30128 38.0678 9.07178 38.4855 9.07178C39.051 9.07178 39.576 9.27428 40.128 9.27428C41.0168 9.27428 41.2995 8.97803 41.2995 8.10278C41.2995 7.79303 41.286 6.81053 41.286 6.60803C41.286 6.29828 41.2185 5.98853 41.2185 5.65253C41.2185 5.20778 40.815 4.93853 40.4108 4.93853C39.522 4.93853 38.2702 5.11328 37.3807 5.24828C37.1527 5.28878 36.7358 5.86778 36.7215 6.09653C36.654 6.78353 36.6135 7.49678 36.5468 8.18378C36.4793 8.87003 36.1425 9.47603 36.1425 10.19C36.1425 11.7785 37.1123 11.63 38.2703 11.63C39.051 11.63 39.7778 11.765 40.5188 11.981C40.5998 11.9945 40.6935 12.0208 40.7745 12.0208C41.2193 12.0208 41.8118 11.7658 41.8118 11.267C41.8245 11.0645 41.7308 10.8365 41.5418 10.742ZM19.9305 9.78578C19.9305 9.24728 20.079 8.66828 20.079 8.17028C20.079 7.72553 19.7288 7.25453 19.2578 7.25453C19.1005 7.26112 18.9495 7.3176 18.8265 7.41578C18.7314 7.5431 18.6669 7.69069 18.6382 7.84703C18.6247 8.06228 18.6248 8.29103 18.6248 8.50703C18.6113 9.65153 18.5302 10.7825 18.5302 11.9135C18.5302 12.371 18.9075 12.6673 19.3515 12.6673C19.7828 12.6673 20.214 12.371 20.214 11.9135C20.214 11.6848 20.1195 11.429 20.0655 11.213C19.9799 10.742 19.9348 10.2645 19.9305 9.78578Z" fill="black"/>
</g>
</g>
<defs>
<clipPath id="clip0_1_149">
<rect width="42" height="15.75" fill="white" transform="translate(0.419998 0.630005)"/>
</clipPath>
<clipPath id="clip1_1_149">
<rect width="42" height="15.75" fill="white" transform="translate(0.419998 0.630005)"/>
</clipPath>
</defs>
</svg>
