<svg width="115" height="23" viewBox="0 0 115 23" fill="none" xmlns="http://www.w3.org/2000/svg">
<g clip-path="url(#clip0_1_699)">
<g clip-path="url(#clip1_1_699)">
<path d="M82.1002 4.1317H80.1068V13.1965C80.1068 15.6041 78.1134 16.4318 75.1418 16.4318C72.1325 16.4318 70.1767 15.5665 70.1767 13.1965V4.1317H68.1826V13.6107C68.1449 17.1465 71.9434 18.2369 75.141 18.2369C78.3377 18.2369 82.0994 17.1465 82.0994 13.6107L82.1002 4.1317ZM89.3606 4.1317H87.4041V5.03306C87.4041 5.14603 87.4417 5.259 87.4417 5.40962V16.7691C87.4417 16.9197 87.4417 17.0327 87.4041 17.1457V18.0486H89.3606V4.1317ZM113.321 16.2435H103.015V11.8048H111.177V10.0374H103.052V5.89836H112.945C113.058 5.89836 113.133 5.89836 113.246 5.93601H114.149V4.1317H100.908V18.0118H114.412V16.2435H113.321ZM8.86433 4.1317V13.6107C8.86433 15.8301 8.07435 16.4694 5.66755 16.4694C4.46335 16.4694 3.33527 16.2435 2.69511 15.8301L1.49171 15.3029L0.890015 16.8452L2.35701 17.5222C2.58294 17.5975 2.80808 17.6729 3.07167 17.7482C3.91646 18.0501 4.80731 18.2027 5.70441 18.1992C8.63839 18.1992 10.8201 17.3339 10.8201 14.2125V4.1317H8.86433ZM26.1293 16.5824C26.2046 16.7322 26.28 16.8829 26.3176 17.0712L26.7695 18.0486H28.8382L22.2555 4.1317H19.5475L13.4904 18.0118H15.2963L15.6729 17.1841C15.7106 17.0711 15.7851 16.9205 15.8612 16.7699L17.1022 13.9497H17.1399L17.1776 13.9112H24.8506L26.1293 16.5824ZM17.8922 12.1437L20.8639 5.52339L24.023 12.1437H17.8922ZM45.4638 15.641L44.222 13.9865L42.8303 14.9271C42.0034 15.5665 40.4611 16.2435 38.3171 16.2435C35.0442 16.2435 32.7873 14.0242 32.7873 11.0902C32.7873 8.15615 34.9689 5.67402 38.5799 5.67402C40.1599 5.67402 41.8152 6.31338 42.6805 6.83977L43.9215 7.51679L44.8245 5.63636L43.5449 4.95935C43.2822 4.84638 42.9441 4.73341 42.6051 4.58278C41.3256 4.1317 40.3105 3.90576 38.5431 3.90576C34.2543 3.94342 30.7186 6.61383 30.7186 11.1278C30.7186 15.6787 34.1413 18.2369 38.4301 18.2369C41.7775 18.2369 43.5449 16.8076 44.4856 16.3188L45.463 15.6418L45.4638 15.641ZM60.8484 19.2152L61.6752 19.9675L63.2175 18.6135L62.1648 17.6729C61.9388 17.4846 61.6007 17.2218 61.1112 16.8076C63.0677 15.4912 64.1958 13.4225 64.1958 11.0902C64.1958 7.17868 61.1112 3.94342 56.2215 3.94342C51.3318 3.94342 48.2472 7.17868 48.2472 11.0902C48.2472 15.0024 51.3318 18.2369 56.2215 18.2369C57.3119 18.2369 58.3286 18.0871 59.1931 17.7482C60.1337 18.5382 60.5848 18.9516 60.8484 19.2152ZM56.2215 16.4694C52.6105 16.4694 50.3535 14.0618 50.3535 11.0533C50.3535 8.08084 52.6481 5.71168 56.2215 5.71168C59.8325 5.71168 62.0895 8.08084 62.0895 11.0525C62.0895 12.7831 61.3371 14.2878 59.9823 15.266C59.2857 15.7734 58.4921 16.1318 57.6508 16.3188C57.2374 16.3941 56.7855 16.4694 56.2215 16.4694ZM96.0178 9.88675H93.9491V11.9555H96.0178V9.88675Z" fill="black"/>
</g>
</g>
<defs>
<clipPath id="clip0_1_699">
<rect width="113.77" height="22.75" fill="white" transform="translate(0.890015 0.179688)"/>
</clipPath>
<clipPath id="clip1_1_699">
<rect width="113.77" height="16.8253" fill="white" transform="translate(0.890015 3.14209)"/>
</clipPath>
</defs>
</svg>
