<svg width="114" height="23" viewBox="0 0 114 23" fill="none" xmlns="http://www.w3.org/2000/svg">
<g clip-path="url(#clip0_1_666)">
<g clip-path="url(#clip1_1_666)">
<path d="M4.48344 6.60332C3.40132 6.58216 2.35484 6.99038 1.57289 7.73871V6.80583H0.0300293V19.6811H1.57289V15.8111C2.36571 16.5363 3.40942 16.9248 4.48344 16.8945C5.11199 16.9069 5.7342 16.7669 6.29691 16.4867C6.85962 16.2063 7.34611 15.794 7.7148 15.2847C8.44071 14.2446 8.81543 12.9998 8.78446 11.7319C8.78446 8.66424 7.05602 6.60332 4.48344 6.60332ZM4.48344 15.3519C2.68817 15.3519 1.57289 13.9647 1.57289 11.7319C1.57289 10.0048 2.4837 8.14594 4.48344 8.14594C6.38879 8.14594 7.24174 9.94696 7.24174 11.7319C7.24174 13.5337 6.38879 15.3519 4.48344 15.3519Z" fill="#231F20"/>
<path d="M21.7387 4.06982H20.1962V6.80581H18.5917V8.34855H20.1962V14.468C20.1962 16.4751 21.6096 16.6917 22.2172 16.6917C22.4727 16.696 22.7282 16.6823 22.9819 16.6509C23.0186 16.6465 23.0543 16.6422 23.0964 16.6388L23.6473 16.5913V14.8664L22.8754 15.1233C22.685 15.1446 22.4934 15.1532 22.3018 15.1492C21.8806 15.1492 21.7387 15.1492 21.7387 14.4005V8.34853H23.698V6.8058H21.7387V4.06982Z" fill="#231F20"/>
<path d="M39.1688 6.62293L38.5869 6.60405C38.5206 6.60172 38.4559 6.60062 38.3913 6.60062C37.4239 6.57034 36.4776 6.88709 35.7233 7.49366V6.80619H34.1805V16.6921H35.7233V11.1749C35.7233 9.66464 36.5366 8.14079 38.3533 8.14079C38.4131 8.14079 38.4741 8.14238 38.5377 8.14569L39.1687 8.17536L39.1688 6.62293Z" fill="#231F20"/>
<path d="M50.5329 3.42822H48.9904V16.6918H50.5329V3.42822Z" fill="#231F20"/>
<path d="M69.6509 6.80615H67.7351L65.0496 10.3405L62.608 7.05243L62.4276 6.80615H60.4746L64.0832 11.5923L60.1339 16.6922H62.081L65.0455 12.8372L68.0243 16.6922H69.9712L66.0226 11.593L69.6509 6.80615Z" fill="#231F20"/>
<path d="M83.8526 6.60354C82.9204 6.58228 82.0119 6.89941 81.296 7.49621V6.80618H79.7535V16.6921H81.296V11.175C81.296 9.66744 82.0867 8.14616 83.8526 8.14616C85.2389 8.14616 86.002 8.9399 86.002 10.3811V16.6921H87.5452V10.3305C87.5452 8.03166 86.1304 6.60354 83.8526 6.60354Z" fill="#231F20"/>
<path d="M95.8585 7.68648C95.0654 6.96141 94.022 6.57298 92.9485 6.60331C92.3195 6.59084 91.6978 6.73075 91.1346 7.01109C90.5723 7.29142 90.0855 7.70384 89.7165 8.21311C88.9908 9.25326 88.6162 10.4979 88.6471 11.7658C88.6471 14.8334 90.3756 16.8945 92.9485 16.8945C94.0301 16.9158 95.0768 16.5078 95.8585 15.7597V16.6919H97.401V3.42822H95.8585V7.68648ZM92.9485 15.3519C91.0428 15.3519 90.1895 13.5508 90.1895 11.7658C90.1895 9.96411 91.0428 8.14593 92.9485 8.14593C94.7436 8.14593 95.8585 9.53298 95.8585 11.7658C95.8585 13.493 94.9476 15.3519 92.9485 15.3519Z" fill="#231F20"/>
<path d="M112.579 6.60381C112.514 6.60185 112.45 6.60062 112.386 6.60062C111.419 6.5703 110.472 6.88702 109.718 7.49354V6.80609H108.176V16.6921H109.718V11.1751C109.718 9.66489 110.532 8.14103 112.348 8.14103C112.408 8.14103 112.469 8.14251 112.533 8.14581L113.164 8.17547V6.62281L112.579 6.60381Z" fill="#231F20"/>
<path d="M14.1511 6.60324C11.9635 6.60324 9.74884 8.37079 9.74884 11.749C9.74884 15.0193 11.3291 16.895 14.0845 16.895H14.0858L14.1511 16.8947C16.4919 16.8947 18.1787 15.427 18.4482 13.1554L18.4675 12.9952H16.9149L16.908 13.0368C16.6673 14.4865 15.6241 15.352 14.1176 15.352C12.4167 15.352 11.5021 14.3925 11.3229 12.4189H18.53L18.5532 11.8422C18.6212 10.2437 18.1412 8.78539 17.2363 7.84136C16.837 7.43094 16.3563 7.1087 15.8249 6.89545C15.2935 6.6822 14.7233 6.58265 14.1511 6.60324ZM16.979 10.8766H11.3614C11.6571 9.21565 12.7604 8.14597 14.1851 8.14597C14.5379 8.13499 14.8893 8.19527 15.2182 8.32321C15.5472 8.45114 15.847 8.64411 16.0996 8.89056C16.6037 9.43748 16.9128 10.1357 16.979 10.8766Z" fill="#231F20"/>
<path d="M28.4052 6.60324C26.2175 6.60324 24.0029 8.37079 24.0029 11.749C24.0029 15.0193 25.5831 16.895 28.3384 16.895H28.3398L28.4052 16.8947C30.7459 16.8947 32.4326 15.427 32.7021 13.1554L32.7215 12.9952H31.169L31.162 13.0368C30.9213 14.4865 29.8781 15.352 28.3715 15.352C26.6706 15.352 25.7561 14.3925 25.5768 12.4189H32.784L32.8072 11.8422C32.8752 10.2437 32.3952 8.78539 31.4902 7.84136C31.091 7.43093 30.6102 7.1087 30.0789 6.89545C29.5475 6.68219 28.9773 6.58265 28.4052 6.60324ZM31.2329 10.8766H25.6153C25.9111 9.21565 27.0144 8.14597 28.439 8.14597C28.7919 8.13499 29.1433 8.19527 29.4722 8.32321C29.8012 8.45114 30.1009 8.64411 30.3536 8.89056C30.8577 9.43748 31.1669 10.1357 31.2329 10.8766Z" fill="#231F20"/>
<path d="M60.6412 12.9952H59.0887L59.0817 13.0368C58.841 14.4865 57.7978 15.3519 56.2913 15.3519C54.5904 15.3519 53.6758 14.3925 53.4966 12.4189H60.7037L60.7269 11.8422C60.795 10.2436 60.3149 8.78537 59.41 7.84135C59.0107 7.43092 58.53 7.10869 57.9986 6.89544C57.4673 6.68219 56.8971 6.58265 56.3248 6.60324C54.1372 6.60324 51.9225 8.37079 51.9225 11.749C51.9225 15.0193 53.5028 16.895 56.2582 16.895H56.2595L56.3248 16.8947C58.6657 16.8947 60.3524 15.427 60.6219 13.1554L60.6412 12.9952ZM59.1527 10.8765H53.5351C53.8309 9.21564 54.9341 8.14596 56.3588 8.14596C56.7116 8.13497 57.063 8.19526 57.3919 8.32319C57.7209 8.45113 58.0207 8.64409 58.2733 8.89054C58.7774 9.43747 59.0866 10.1357 59.1527 10.8765Z" fill="#231F20"/>
<path d="M102.825 6.60324C100.638 6.60324 98.4232 8.37079 98.4232 11.749C98.4232 15.0193 100.004 16.895 102.759 16.895H102.76L102.825 16.8947C105.167 16.8947 106.854 15.427 107.123 13.1554L107.142 12.9952H105.589L105.583 13.0368C105.342 14.4865 104.299 15.352 102.792 15.352C101.091 15.352 100.177 14.3925 99.9973 12.4189H107.205L107.227 11.8422C107.296 10.2437 106.815 8.78539 105.911 7.84136C105.512 7.43093 105.031 7.1087 104.499 6.89545C103.968 6.68219 103.398 6.58265 102.825 6.60324ZM105.653 10.8766H100.036C100.331 9.21565 101.435 8.14597 102.859 8.14597C103.212 8.13499 103.564 8.19527 103.893 8.32321C104.221 8.45114 104.521 8.64411 104.774 8.89056C105.278 9.43748 105.588 10.1357 105.653 10.8766Z" fill="#231F20"/>
<path d="M47.9269 15.7352L47.9072 15.0841L47.2535 15.1536C47.1458 15.1652 47.0116 15.1796 46.9017 15.1796C46.8733 15.1796 46.8492 15.1785 46.8293 15.177L46.8289 9.67244C46.7768 7.72211 45.5109 6.60352 43.3558 6.60352C41.018 6.60352 39.5556 7.89679 39.4436 10.063L39.4213 10.497H40.9588L40.9838 10.1378C41.0804 8.81618 41.8784 8.14613 43.3558 8.14613C44.988 8.14613 45.2866 8.75097 45.2866 9.94201C45.2866 10.488 45.2155 10.5947 42.9664 10.7148L42.4525 10.7429C40.9285 10.8494 38.9026 11.2972 38.9026 13.9448C38.9026 15.7643 40.2465 16.8946 42.4098 16.8946C43.4973 16.915 44.5553 16.5398 45.387 15.8389C45.5432 16.252 45.9414 16.7094 46.9391 16.7094C47.0647 16.7094 47.2053 16.7032 47.3688 16.6903L47.9274 16.6496L47.9269 15.7352ZM45.2866 12.5934C45.2866 13.9641 44.2869 15.3518 42.3762 15.3518C40.6961 15.3518 40.4452 14.4703 40.4452 13.9448C40.4452 12.5485 41.3522 12.3703 42.5376 12.2821C42.7732 12.2651 43.0144 12.253 43.2972 12.2389C43.9665 12.2328 44.6334 12.1558 45.2866 12.0093V12.5934Z" fill="#231F20"/>
<path d="M78.9747 15.7352L78.955 15.0841L78.3014 15.1536C78.1936 15.1652 78.0593 15.1796 77.9496 15.1796C77.9211 15.1796 77.8971 15.1785 77.8771 15.177L77.8767 9.67244C77.8247 7.72211 76.5587 6.60352 74.4036 6.60352C72.0658 6.60352 70.6034 7.89679 70.4915 10.063L70.4691 10.497H72.0066L72.0316 10.1378C72.1282 8.81618 72.9262 8.14613 74.4036 8.14613C76.0358 8.14613 76.3343 8.75097 76.3343 9.94201C76.3343 10.488 76.2632 10.5947 74.0141 10.7148L73.5003 10.7429C71.9763 10.8494 69.9503 11.2972 69.9503 13.9448C69.9503 15.7643 71.2942 16.8946 73.4576 16.8946C74.5451 16.915 75.603 16.5398 76.4348 15.8389C76.5909 16.252 76.9892 16.7094 77.9869 16.7094C78.1124 16.7094 78.2531 16.7032 78.4166 16.6903L78.9752 16.6496L78.9747 15.7352ZM76.3343 12.5934C76.3343 13.9641 75.3347 15.3518 73.4239 15.3518C71.7439 15.3518 71.493 14.4703 71.493 13.9448C71.493 12.5485 72.4 12.3703 73.5854 12.2821C73.821 12.2651 74.0621 12.253 74.3449 12.2389C75.0143 12.2328 75.6812 12.1558 76.3343 12.0093V12.5934Z" fill="#231F20"/>
</g>
</g>
<defs>
<clipPath id="clip0_1_666">
<rect width="113.77" height="22.75" fill="white" transform="translate(0.0300293 0.179688)"/>
</clipPath>
<clipPath id="clip1_1_666">
<rect width="113.77" height="16.4886" fill="white" transform="translate(0.0300293 3.31055)"/>
</clipPath>
</defs>
</svg>
