<svg width="21" height="21" viewBox="0 0 21 21" fill="none" xmlns="http://www.w3.org/2000/svg">
<g clip-path="url(#clip0_1_631)">
<g clip-path="url(#clip1_1_631)">
<path d="M10.2 1.82295C12.87 1.82295 13.2 1.82295 14.2 1.88295C14.8349 1.88806 15.4642 2.00309 16.06 2.22295C16.4957 2.3997 16.8855 2.67327 17.2 3.02295C17.5448 3.32587 17.818 3.70158 18 4.12295C18.2242 4.73134 18.3393 5.37454 18.34 6.02295C18.34 7.07295 18.4 7.39295 18.4 10.0229C18.4 12.6529 18.4 13.0229 18.34 14.0229C18.3346 14.6579 18.2196 15.2872 18 15.8829C17.8337 16.3149 17.5787 16.7072 17.2514 17.0344C16.9242 17.3617 16.5319 17.6167 16.1 17.7829C15.5042 18.0026 14.8749 18.1176 14.24 18.1229C13.19 18.1229 12.87 18.1829 10.24 18.1829C7.60995 18.1829 7.23995 18.1829 6.23995 18.1229C5.58054 18.1399 4.92345 18.0383 4.29995 17.8229C3.87858 17.641 3.50287 17.3678 3.19995 17.0229C2.85514 16.72 2.5819 16.3443 2.39995 15.9229C2.1755 15.3146 2.0604 14.6714 2.05995 14.0229C2.05995 12.9729 1.99995 12.6529 1.99995 10.0229C1.99995 7.39295 1.99995 7.02295 2.05995 6.02295C2.0604 5.37453 2.1755 4.73129 2.39995 4.12295C2.5819 3.70158 2.85514 3.32587 3.19995 3.02295C3.50287 2.67814 3.87858 2.4049 4.29995 2.22295C4.90829 1.9985 5.55153 1.8834 6.19995 1.88295C7.24995 1.88295 7.56995 1.82295 10.2 1.82295ZM10.2 0.0229492C7.47995 0.0229492 7.13995 0.0229492 6.07995 0.0829492C5.24925 0.101514 4.42767 0.260421 3.64995 0.552949C2.98341 0.803144 2.3794 1.19558 1.87995 1.70295C1.37258 2.2024 0.980146 2.80641 0.729951 3.47295C0.437423 4.25066 0.278516 5.07225 0.259951 5.90295C0.199951 6.96295 0.199951 7.30295 0.199951 10.0229C0.199951 12.7429 0.199951 13.0829 0.259951 14.1429C0.278707 14.9736 0.437608 15.7952 0.729951 16.5729C0.980146 17.2395 1.37258 17.8435 1.87995 18.3429C2.3792 18.8506 2.98327 19.243 3.64995 19.4929C4.42767 19.7855 5.24925 19.9444 6.07995 19.9629C7.13995 20.0229 7.47995 20.0229 10.2 20.0229C12.92 20.0229 13.26 20.0229 14.32 19.9629C15.1506 19.9442 15.9722 19.7853 16.75 19.4929C17.4127 19.2356 18.0147 18.8431 18.5174 18.3404C19.0201 17.8377 19.4126 17.2357 19.67 16.5729C19.9623 15.7952 20.1212 14.9736 20.14 14.1429C20.14 13.0729 20.2 12.7329 20.2 10.0229C20.2 7.31295 20.2 6.96295 20.14 5.90295C20.1214 5.07225 19.9625 4.25066 19.67 3.47295C19.42 2.80626 19.0276 2.20219 18.52 1.70295C18.0205 1.19558 17.4165 0.803144 16.75 0.552949C15.9722 0.260606 15.1506 0.101705 14.32 0.0829492C13.26 0.0229492 12.92 0.0229492 10.2 0.0229492Z" fill="#191919"/>
<path d="M10.1999 4.88281C9.18334 4.88281 8.18958 5.18427 7.34431 5.74906C6.49904 6.31385 5.84023 7.11661 5.4512 8.05582C5.06216 8.99503 4.96037 10.0285 5.1587 11.0256C5.35703 12.0226 5.84657 12.9385 6.56541 13.6573C7.28425 14.3762 8.20011 14.8657 9.19717 15.064C10.1942 15.2624 11.2277 15.1606 12.1669 14.7716C13.1061 14.3825 13.9089 13.7237 14.4737 12.8784C15.0385 12.0332 15.3399 11.0394 15.3399 10.0228C15.3399 9.34782 15.207 8.67943 14.9487 8.05582C14.6904 7.43221 14.3118 6.86558 13.8345 6.38828C13.3572 5.91099 12.7905 5.53238 12.1669 5.27407C11.5433 5.01576 10.8749 4.88281 10.1999 4.88281ZM10.1999 13.3528C9.54133 13.3528 8.89751 13.1575 8.34989 12.7916C7.80227 12.4257 7.37546 11.9056 7.12342 11.2971C6.87138 10.6887 6.80544 10.0191 6.93392 9.37316C7.06241 8.72721 7.37956 8.13386 7.84527 7.66815C8.31098 7.20244 8.90433 6.88529 9.55029 6.7568C10.1962 6.62831 10.8658 6.69425 11.4743 6.94629C12.0828 7.19833 12.6028 7.62515 12.9687 8.17276C13.3346 8.72038 13.5299 9.3642 13.5299 10.0228C13.5273 10.9052 13.1756 11.7506 12.5517 12.3746C11.9278 12.9985 11.0823 13.3502 10.1999 13.3528Z" fill="#191919"/>
<path d="M15.54 5.88291C16.2027 5.88291 16.74 5.34565 16.74 4.68291C16.74 4.02017 16.2027 3.48291 15.54 3.48291C14.8772 3.48291 14.34 4.02017 14.34 4.68291C14.34 5.34565 14.8772 5.88291 15.54 5.88291Z" fill="#191919"/>
</g>
</g>
<defs>
<clipPath id="clip0_1_631">
<rect width="20" height="20" fill="white" transform="translate(0.199951 0.0229492)"/>
</clipPath>
<clipPath id="clip1_1_631">
<rect width="20" height="20" fill="white" transform="translate(0.199951 0.0229492)"/>
</clipPath>
</defs>
</svg>
