<svg width="68" height="15" viewBox="0 0 68 15" fill="none" xmlns="http://www.w3.org/2000/svg">
<g clip-path="url(#clip0_1_133)">
<g clip-path="url(#clip1_1_133)">
<path d="M13.0962 10.7868C12.9304 11.0356 12.2671 11.8649 10.6912 11.8649C9.94497 11.8649 8.36904 11.4502 8.36904 9.29352V3.23864H11.0234V8.29776C11.0234 8.96181 11.1057 9.45937 11.769 9.45937C12.2671 9.45937 12.5981 9.04474 12.7646 8.54718V3.23864H15.3354V8.54718C15.3354 8.71303 15.3354 9.46001 15.9987 9.46001L15.3354 11.8649C14.4228 12.0307 13.4278 11.8649 13.0962 10.7868ZM23.7941 9.45937C23.7941 11.5332 25.6188 11.9478 26.5308 11.9478C27.4435 11.9478 28.1897 11.5332 28.5213 11.2021V9.04474C28.1068 9.37644 27.5264 9.62522 27.2776 9.62522C26.7795 9.62522 26.5308 9.37644 26.5308 8.79596V5.14722H28.6042V3.23799H26.5308V0.750214H25.7853L23.1309 3.65327V5.14722H23.8771V9.46065H23.7941V9.45937ZM21.7208 3.65327C21.3062 3.32156 20.3942 3.07278 19.7309 3.07278C17.9063 3.07278 16.9113 4.48252 16.9113 5.64413C16.9113 8.04963 19.8967 8.2984 19.8967 9.29352C19.8967 9.62586 19.5651 9.70879 19.2335 9.70879C18.7354 9.70879 17.9063 9.29352 17.0772 8.71303V10.9527C17.6575 11.4502 18.8189 11.9478 19.648 11.9478C21.5549 11.9478 22.6334 10.7039 22.6334 9.37644C22.6334 6.97095 19.648 6.97095 19.648 5.72706C19.648 5.31243 20.2284 4.64902 21.7214 5.72706L21.7208 3.65327ZM3.97417 9.45937C3.97417 11.2015 2.81279 10.9527 2.56406 11.0356L3.47671 13.607C4.55454 13.7728 5.63237 13.4411 6.12983 13.0265C6.46211 12.7777 6.95893 12.3624 6.95893 10.7039V0.750214H3.97481L3.97417 9.45937ZM59.2886 5.31243C59.2886 3.57034 58.376 2.90693 57.1323 2.90693C56.0545 2.90693 55.2247 3.40449 54.8931 4.15082V3.07278H52.4058V11.4502H54.8931V6.39111C54.9766 5.89291 55.3076 5.31243 55.8887 5.31243C56.3032 5.31243 56.7178 5.64413 56.7178 6.22526V11.4502H59.2886V5.31243ZM32.751 9.45937C32.751 11.2015 31.5896 10.9527 31.3409 11.0356L32.2535 13.607C33.3314 13.7728 34.4092 13.4411 34.9073 13.0265C35.2389 12.7777 35.7364 12.3624 35.7364 10.7039V0.83314H32.751V9.45937ZM65.0936 3.40449C64.679 3.07278 63.767 2.82401 63.1037 2.82401C61.2784 2.82401 60.2835 4.23375 60.2835 5.39535C60.2835 7.80085 63.2696 8.04963 63.2696 9.04474C63.2696 9.37644 62.9379 9.45937 62.6056 9.45937C62.1082 9.45937 61.2791 9.04474 60.4493 8.46426V10.7039C61.0304 11.2015 62.1911 11.699 63.0202 11.699C64.9278 11.699 66.0062 10.4551 66.0062 9.12766C66.0062 6.72217 63.0208 6.72217 63.0208 5.47828C63.0208 5.06365 63.6012 4.3996 65.0936 5.47828V3.40449ZM47.7615 10.1228C47.5128 10.1228 47.0976 9.87464 47.0976 9.45937C47.0976 8.71368 47.9267 8.46426 48.3419 8.13255V9.29352C48.3419 9.62586 48.4248 9.87464 48.4248 9.87464C48.3413 9.95757 48.0932 10.1234 47.7615 10.1234V10.1228ZM50.9957 9.12766V5.39535C50.9957 3.65327 49.5027 2.82401 48.0932 2.82401C47.0147 2.82401 45.9369 3.32156 45.3565 4.06789V6.47339C46.3514 5.56056 47.1805 5.2295 47.7615 5.2295C48.4248 5.2295 48.4248 5.97583 48.4248 6.80509C47.6786 7.1368 46.7666 7.22037 45.9369 7.63435C45.1078 8.04963 44.8591 8.79596 44.8591 9.62586C44.8591 10.621 45.5223 11.7819 47.0147 11.7819C47.9274 11.7819 48.5906 11.5332 49.2539 11.0356C49.5856 11.5332 50.2495 11.7819 51.0786 11.699L51.659 9.79171C51.3273 9.62586 50.9957 9.45937 50.9957 9.12766ZM39.4686 6.47339C39.4686 5.56056 39.7996 4.64902 40.4635 4.64902C41.0439 4.64902 41.4585 5.39471 41.4585 6.47339H39.4686ZM40.5465 2.82401C38.7218 2.82401 36.8142 4.3996 36.8142 7.55207C36.8142 10.0399 38.556 11.7819 40.5465 11.7819C41.873 11.7819 43.0338 11.2844 43.8635 10.7039V8.71303C43.2002 9.12766 42.2053 9.62586 41.2097 9.62586C39.8832 9.62586 39.468 8.38133 39.468 7.71792H44.0293C44.1951 4.15082 42.6205 2.82401 40.5465 2.82401Z" fill="black"/>
</g>
</g>
<defs>
<clipPath id="clip0_1_133">
<rect width="66.81" height="13.5" fill="white" transform="translate(0.973328 0.75)"/>
</clipPath>
<clipPath id="clip1_1_133">
<rect width="66.81" height="13.4996" fill="white" transform="translate(0.973328 0.75)"/>
</clipPath>
</defs>
</svg>
