<svg width="29" height="15" viewBox="0 0 29 15" fill="none" xmlns="http://www.w3.org/2000/svg">
<g clip-path="url(#clip0_1_141)">
<g clip-path="url(#clip1_1_141)">
<path d="M28.1133 6.76711H26.7064V14.0002H28.1139L28.1133 6.76711ZM25.7806 5.46195H24.0276V0.75148H22.6248V5.46195H19.815V0.75148H18.4075V5.46195H16.8151V6.86429H18.4075V13.9955H19.815V6.86429H22.6248V13.9955H24.0283V6.86429H25.7806V5.46195ZM28.1281 5.43698C28.1281 5.83649 27.8069 6.1584 27.4075 6.1584C27.3127 6.15858 27.2189 6.14003 27.1313 6.10383C27.0438 6.06763 26.9642 6.01449 26.8973 5.94746C26.8303 5.88042 26.7772 5.80082 26.7411 5.71321C26.705 5.62561 26.6866 5.53174 26.6868 5.43698C26.6868 5.03814 27.008 4.71624 27.4075 4.71624C27.5985 4.71659 27.7816 4.79264 27.9166 4.92773C28.0517 5.06282 28.1278 5.24594 28.1281 5.43698ZM13.1187 6.66994C10.946 6.66994 9.18822 8.36449 9.18822 10.4592C9.18822 12.5533 10.9467 14.2485 13.1187 14.2485C15.2908 14.2485 17.0485 12.5533 17.0485 10.4592C17.0485 8.36449 15.2908 6.66926 13.1187 6.66926V6.66994ZM13.1187 12.9481C12.4587 12.9479 11.8258 12.6857 11.359 12.219C10.8923 11.7523 10.6299 11.1193 10.6295 10.4592C10.6299 9.79914 10.8923 9.16619 11.359 8.6995C11.8258 8.23281 12.4587 7.97055 13.1187 7.97038C13.7786 7.97073 14.4114 8.23307 14.878 8.69974C15.3446 9.16641 15.6069 9.79926 15.6072 10.4592C15.6069 11.1192 15.3446 11.752 14.878 12.2187C14.4114 12.6854 13.7786 12.9477 13.1187 12.9481ZM6.9136 0.75148V7.93596C6.53846 7.53429 6.08441 7.21445 5.57991 6.99648C5.07541 6.77851 4.53132 6.66711 3.98176 6.66926C1.8151 6.66994 0.0566711 8.36449 0.0566711 10.4592C0.0566711 12.5533 1.8151 14.2485 3.98716 14.2485C4.53681 14.2512 5.08106 14.1401 5.58565 13.9221C6.09024 13.7041 6.54422 13.3839 6.919 12.9818V13.9955H8.32588V0.75148H6.9136ZM3.98716 12.9481C3.32715 12.9479 2.69422 12.6857 2.22747 12.219C1.76071 11.7523 1.49832 11.1193 1.49796 10.4592C1.49832 9.79914 1.76071 9.16619 2.22747 8.6995C2.69422 8.23281 3.32715 7.97055 3.98716 7.97038C4.64705 7.97073 5.2798 8.23307 5.74641 8.69974C6.21303 9.16641 6.47532 9.79926 6.47568 10.4592C6.47532 11.1192 6.21303 11.752 5.74641 12.2187C5.2798 12.6854 4.64705 12.9477 3.98716 12.9481Z" fill="black"/>
</g>
</g>
<defs>
<clipPath id="clip0_1_141">
<rect width="28.34" height="13.5" fill="white" transform="translate(0.0566711 0.75)"/>
</clipPath>
<clipPath id="clip1_1_141">
<rect width="28.34" height="13.497" fill="white" transform="translate(0.0566711 0.75148)"/>
</clipPath>
</defs>
</svg>
