<svg width="21" height="21" viewBox="0 0 21 21" fill="none" xmlns="http://www.w3.org/2000/svg">
<g clip-path="url(#clip0_1_639)">
<g clip-path="url(#clip1_1_639)">
<path d="M16.0372 4.03364C14.9586 3.33235 14.1838 2.20695 13.94 0.897886C13.8866 0.610693 13.8565 0.320161 13.8565 0.0229492H10.4169L10.4102 13.8048C10.3534 15.3477 9.08107 16.5866 7.52488 16.5866C7.04066 16.5866 6.58649 16.4665 6.18576 16.2561C5.26407 15.7719 4.63625 14.8067 4.63625 13.698C4.63625 12.1051 5.93196 10.806 7.52822 10.806C7.82543 10.806 8.11262 10.8561 8.37978 10.9396V8.24469V7.42986C8.09927 7.39313 7.81541 7.36641 7.52822 7.36641C4.03849 7.36641 1.19995 10.2049 1.19995 13.6946C1.19995 15.8352 2.26858 17.7321 3.90157 18.8776C4.93012 19.5989 6.17908 20.0229 7.52822 20.0229C11.018 20.0229 13.8565 17.1844 13.8565 13.6946V6.7052C15.2057 7.67364 16.8587 8.24469 18.642 8.24469V5.57313V4.80839C17.6802 4.80505 16.7852 4.5212 16.0372 4.03364Z" fill="#191919"/>
</g>
</g>
<defs>
<clipPath id="clip0_1_639">
<rect width="20" height="20" fill="white" transform="translate(0.199951 0.0229492)"/>
</clipPath>
<clipPath id="clip1_1_639">
<rect width="20" height="20" fill="white" transform="translate(0.199951 0.0229492)"/>
</clipPath>
</defs>
</svg>
