<svg width="115" height="23" viewBox="0 0 115 23" fill="none" xmlns="http://www.w3.org/2000/svg">
<g clip-path="url(#clip0_1_691)">
<g clip-path="url(#clip1_1_691)">
<path d="M80.635 10.3194H78.2633V22.5111H80.6361L80.635 10.3194ZM76.7026 8.11944H73.7474V0.179688H71.3825V8.11944H66.646V0.179688H64.2732V8.11944H61.5887V10.4832H64.2732V22.5031H66.646V10.4832H71.3825V22.5031H73.7485V10.4832H76.7026V8.11944ZM80.66 8.07735C80.66 8.75075 80.1185 9.29334 79.4451 9.29334C79.2854 9.29364 79.1272 9.26238 78.9796 9.20137C78.832 9.14035 78.6979 9.05077 78.585 8.93778C78.4721 8.82479 78.3827 8.69062 78.3218 8.54296C78.2609 8.3953 78.2298 8.23707 78.2303 8.07735C78.2303 7.40509 78.7717 6.8625 79.4451 6.8625C79.7671 6.8631 80.0758 6.99129 80.3035 7.21899C80.5312 7.44668 80.6594 7.75534 80.66 8.07735ZM55.3574 10.1556C51.6947 10.1556 48.7315 13.0118 48.7315 16.5426C48.7315 20.0723 51.6958 22.9297 55.3574 22.9297C59.019 22.9297 61.9822 20.0723 61.9822 16.5426C61.9822 13.0118 59.019 10.1544 55.3574 10.1544V10.1556ZM55.3574 20.7377C54.2448 20.7374 53.1778 20.2954 52.391 19.5087C51.6041 18.7221 51.1618 17.6552 51.1612 16.5426C51.1618 15.43 51.6041 14.3631 52.391 13.5765C53.1778 12.7899 54.2448 12.3478 55.3574 12.3475C56.4699 12.3481 57.5365 12.7903 58.3232 13.5769C59.1098 14.3635 59.5519 15.4302 59.5525 16.5426C59.5519 17.6551 59.1098 18.7217 58.3232 19.5083C57.5365 20.2949 56.4699 20.7371 55.3574 20.7377ZM44.897 0.179688V12.2895C44.2646 11.6125 43.4992 11.0734 42.6487 10.706C41.7982 10.3386 40.881 10.1508 39.9545 10.1544C36.302 10.1556 33.3377 13.0118 33.3377 16.5426C33.3377 20.0723 36.302 22.9297 39.9636 22.9297C40.8902 22.9343 41.8077 22.7469 42.6583 22.3795C43.509 22.012 44.2743 21.4724 44.9061 20.7946V22.5031H47.2778V0.179688H44.897ZM39.9636 20.7377C38.851 20.7374 37.784 20.2954 36.9972 19.5087C36.2103 18.7221 35.768 17.6552 35.7674 16.5426C35.768 15.43 36.2103 14.3631 36.9972 13.5765C37.784 12.7899 38.851 12.3478 39.9636 12.3475C41.0761 12.3481 42.1428 12.7903 42.9294 13.5769C43.716 14.3635 44.1581 15.4302 44.1587 16.5426C44.1581 17.6551 43.716 18.7217 42.9294 19.5083C42.1428 20.2949 41.0761 20.7371 39.9636 20.7377Z" fill="black"/>
</g>
</g>
<defs>
<clipPath id="clip0_1_691">
<rect width="113.77" height="22.75" fill="white" transform="translate(0.339996 0.179688)"/>
</clipPath>
<clipPath id="clip1_1_691">
<rect width="47.775" height="22.75" fill="white" transform="translate(33.3377 0.179688)"/>
</clipPath>
</defs>
</svg>
