<svg width="115" height="23" viewBox="0 0 115 23" fill="none" xmlns="http://www.w3.org/2000/svg">
<g clip-path="url(#clip0_1_687)">
<g clip-path="url(#clip1_1_687)">
<path d="M80.5991 5.39389H78.9432C75.6008 5.39389 73.16 6.17785 73.16 9.63687V12.0194C73.16 15.4488 75.6008 16.2624 78.9432 16.2624H80.5991C82.1976 16.2624 83.5915 16.03 84.6097 15.4488V16.2624H86.3822V9.63687C86.3822 6.17881 83.9414 5.39389 80.5991 5.39389ZM84.6097 11.9037C84.6097 14.3445 83.1852 14.8101 81.122 14.8101H78.3906C76.3571 14.8101 74.9039 14.3445 74.9039 11.9037V9.72388C74.9039 7.28306 76.3284 6.81746 78.3906 6.81746H81.122C83.1565 6.81746 84.6097 7.28306 84.6097 9.72388V11.9037ZM65.983 5.3652H65.7497C63.5995 5.3652 61.8853 5.68453 60.8968 6.81841C59.9092 5.68453 58.1367 5.3652 55.9865 5.3652H55.9578C54.3297 5.3652 52.9635 5.74285 51.9759 6.49813V5.45221H50.319V16.1754H52.0925V9.69519C52.0925 7.25438 53.5161 6.78878 55.5792 6.78878H56.5382C58.5726 6.78878 60.0249 7.25438 60.0249 9.69519V16.1457H61.7983V9.69519C61.7983 7.25438 63.2219 6.78878 65.2851 6.78878H66.5346C68.5978 6.78878 70.0213 7.25438 70.0213 9.69519V16.1457H71.7958V9.57856C71.7671 6.14917 69.3253 5.3652 65.983 5.3652ZM22.8871 5.39389H20.9989C17.6565 5.39389 15.2157 6.17785 15.2157 9.63687V11.9324C15.2157 15.3618 17.6565 16.1754 20.9989 16.1754H22.888C26.2294 16.1754 28.6702 15.3618 28.6702 11.9324V9.63687C28.6702 6.17881 26.2294 5.39389 22.8871 5.39389ZM26.8977 11.8167C26.8977 14.2575 25.4732 14.7231 23.411 14.7231H20.4759C18.4128 14.7231 16.9883 14.2575 16.9883 11.8167V9.72388C16.9883 7.28306 18.4128 6.81746 20.4759 6.81746H23.411C25.4742 6.81746 26.8977 7.28306 26.8977 9.72388V11.8167ZM8.21267 5.39389H6.32352C3.0108 5.39389 0.570007 6.17785 0.570007 9.60819V21.1153H2.34252V15.3321C3.35976 15.9134 4.75464 16.1457 6.35316 16.1457H8.24136C11.5837 16.1457 14.0245 15.3331 14.0245 11.9037V9.60819C13.9958 6.17881 11.555 5.39389 8.21267 5.39389ZM12.252 11.8167C12.252 14.2575 10.8275 14.7231 8.76431 14.7231H5.80056C3.7374 14.7231 2.31384 14.2575 2.31384 11.8167V9.72388C2.31384 7.28306 3.73836 6.81746 5.80056 6.81746H8.73563C10.7701 6.81746 12.2223 7.28306 12.2223 9.72388V11.8167H12.252ZM94.8385 5.39389H93.6176C91.9617 5.39389 90.5372 5.77153 89.4913 6.58514V5.62716H87.8354V16.118H89.6079V9.72388C89.6079 7.28306 91.0315 6.81746 93.0946 6.81746H95.3901C97.4533 6.81746 98.8778 7.28306 98.8778 9.72388V16.0884H100.65V9.63687C100.621 6.17881 98.1808 5.39389 94.8385 5.39389ZM110.007 10.0155H105.358C103.614 10.0155 103.323 9.52024 103.323 8.67699V8.3003C103.323 7.10906 103.846 6.87578 106.23 6.87578H109.368C110.734 6.87578 111.664 6.90446 112.012 7.5737L113.524 6.81841C113.116 5.97517 112.07 5.42257 109.456 5.42257H106.666C102.539 5.42257 101.609 6.35281 101.609 8.06798V8.67795C101.609 10.6541 102.481 11.4677 104.835 11.4677H110.211C112.216 11.4677 112.478 12.0194 112.478 13.0366V13.1236C112.478 14.6935 111.693 14.7805 109.165 14.7805H105.358C104.341 14.7805 103.672 14.5768 103.323 14.1409L101.813 14.8388C102.568 16.204 104.341 16.204 106.23 16.204H109.513C111.547 16.204 114.133 16.0884 114.133 13.1829V13.1533C114.22 10.2755 112.535 10.0145 110.007 10.0145V10.0155ZM35.9639 5.3652C34.3664 5.3652 32.9715 5.56884 31.9543 6.12049V5.3652H30.1818V16.117H31.9246V9.72388C31.9246 7.28306 33.3491 6.81746 35.4123 6.81746C35.4123 6.81746 38.0271 6.8471 38.3761 7.51538L39.8293 6.76009C39.3063 5.45221 35.9639 5.3652 35.9639 5.3652ZM47.4719 14.7518C48.1698 14.7518 49.0991 14.6352 49.0991 14.6352V16.1457C49.0704 16.1457 48.4892 16.2624 47.7626 16.2624C46.8036 16.2624 42.0664 16.4077 42.0664 12.7173V6.87578L42.0377 6.81841H40.7585V5.39389H42.0377V1.99414H43.8686V5.39389H48.4308V6.81841H43.8686V12.223C43.8686 13.8799 44.6812 14.7518 47.4719 14.7518Z" fill="black"/>
</g>
</g>
<defs>
<clipPath id="clip0_1_687">
<rect width="113.77" height="22.75" fill="white" transform="translate(0.570007 0.179688)"/>
</clipPath>
<clipPath id="clip1_1_687">
<rect width="113.77" height="19.1212" fill="white" transform="translate(0.570007 1.99414)"/>
</clipPath>
</defs>
</svg>
