<svg width="115" height="23" viewBox="0 0 115 23" fill="none" xmlns="http://www.w3.org/2000/svg">
<g clip-path="url(#clip0_1_683)">
<g clip-path="url(#clip1_1_683)">
<path d="M21.8131 17.0938C21.5336 17.513 20.4156 18.9105 17.7592 18.9105C16.5015 18.9105 13.8452 18.2118 13.8452 14.5772V4.37327H18.3193V12.8991C18.3193 14.0182 18.458 14.8567 19.576 14.8567C20.4156 14.8567 20.9735 14.1579 21.2541 13.3194V4.37327H25.5874V13.3194C25.5874 13.5989 25.5874 14.8578 26.7054 14.8578L25.5874 18.9105C24.0491 19.19 22.3721 18.9105 21.8131 17.0938ZM39.8452 14.8567C39.8452 18.3515 42.9207 19.0503 44.458 19.0503C45.9963 19.0503 47.2541 18.3515 47.8131 17.7936V14.1579C47.1143 14.7169 46.1361 15.1362 45.7168 15.1362C44.8772 15.1362 44.458 14.7169 44.458 13.7387V7.58969H47.9528V4.37219H44.458V0.179688H43.2013L38.7272 5.07202V7.58969H39.9849V14.8589H39.8452V14.8567ZM36.3503 5.07202C35.6516 4.51302 34.1143 4.09377 32.9963 4.09377C29.9207 4.09377 28.2437 6.46952 28.2437 8.4271C28.2437 12.4809 33.2758 12.9002 33.2758 14.5772C33.2758 15.1373 32.7168 15.277 32.1578 15.277C31.3182 15.277 29.9207 14.5772 28.5232 13.5989V17.3733C29.5015 18.2118 31.4591 19.0503 32.8566 19.0503C36.0708 19.0503 37.8887 16.954 37.8887 14.7169C37.8887 10.6631 32.8566 10.6631 32.8566 8.56685C32.8566 7.8681 33.8348 6.7501 36.3514 8.56685L36.3503 5.07202ZM6.43732 14.8567C6.43732 17.7925 4.47974 17.3733 4.06049 17.513L5.59882 21.8464C7.41557 22.1259 9.23232 21.5669 10.0708 20.8681C10.6309 20.4489 11.4683 19.749 11.4683 16.954V0.179688H6.4384L6.43732 14.8567ZM99.6733 7.8681C99.6733 4.93227 98.135 3.81427 96.0387 3.81427C94.222 3.81427 92.8234 4.65277 92.2644 5.91052V4.09377H88.0719V18.2118H92.2644V9.68594C92.4052 8.84635 92.9632 7.8681 93.9425 7.8681C94.6412 7.8681 95.34 8.4271 95.34 9.40644V18.2118H99.6733V7.8681ZM54.9425 14.8567C54.9425 17.7925 52.9849 17.3733 52.5657 17.513L54.104 21.8464C55.9207 22.1259 57.7375 21.5669 58.5771 20.8681C59.1361 20.4489 59.9746 19.749 59.9746 16.954V0.319437H54.9425V14.8567ZM109.458 4.65277C108.759 4.09377 107.222 3.67452 106.104 3.67452C103.027 3.67452 101.35 6.05027 101.35 8.00785C101.35 12.0617 106.383 12.4809 106.383 14.1579C106.383 14.7169 105.824 14.8567 105.264 14.8567C104.426 14.8567 103.028 14.1579 101.63 13.1797V16.954C102.609 17.7925 104.566 18.631 105.963 18.631C109.178 18.631 110.996 16.5348 110.996 14.2977C110.996 10.2439 105.964 10.2439 105.964 8.1476C105.964 7.44885 106.942 6.32977 109.458 8.1476V4.65277ZM80.2437 15.9747C79.8245 15.9747 79.1247 15.5565 79.1247 14.8567C79.1247 13.6 80.5222 13.1797 81.222 12.6207V14.5772C81.222 15.1373 81.3617 15.5565 81.3617 15.5565C81.2209 15.6963 80.8027 15.9758 80.2437 15.9758V15.9747ZM85.6951 14.2977V8.00785C85.6951 5.07202 83.1785 3.67452 80.8027 3.67452C78.9849 3.67452 77.1682 4.51302 76.1899 5.77077V9.8246C77.8669 8.28627 79.2644 7.72835 80.2437 7.72835C81.3617 7.72835 81.3617 8.9861 81.3617 10.3836C80.104 10.9426 78.5667 11.0834 77.1682 11.7811C75.7707 12.4809 75.3514 13.7387 75.3514 15.1373C75.3514 16.8143 76.4694 18.7708 78.9849 18.7708C80.5232 18.7708 81.6412 18.3515 82.7592 17.513C83.3182 18.3515 84.4373 18.7708 85.8348 18.631L86.8131 15.4168C86.2541 15.1373 85.6951 14.8567 85.6951 14.2977ZM66.2655 9.8246C66.2655 8.28627 66.8234 6.7501 67.9425 6.7501C68.9207 6.7501 69.6195 8.00677 69.6195 9.8246H66.2655ZM68.0822 3.67452C65.0067 3.67452 61.7913 6.32977 61.7913 11.6424C61.7913 15.8349 64.7272 18.7708 68.0822 18.7708C70.3182 18.7708 72.2747 17.9323 73.6733 16.954V13.5989C72.5553 14.2977 70.8783 15.1373 69.2002 15.1373C66.9642 15.1373 66.2644 13.0399 66.2644 11.9219H73.9528C74.2323 5.91052 71.5782 3.67452 68.0822 3.67452Z" fill="black"/>
</g>
</g>
<defs>
<clipPath id="clip0_1_683">
<rect width="113.77" height="22.75" fill="white" transform="translate(0.799988 0.179688)"/>
</clipPath>
<clipPath id="clip1_1_683">
<rect width="112.613" height="22.75" fill="white" transform="translate(1.37924 0.179688)"/>
</clipPath>
</defs>
</svg>
