<svg width="156" height="23" viewBox="0 0 156 23" fill="none" xmlns="http://www.w3.org/2000/svg">
<g clip-path="url(#clip0_1_9)">
<g clip-path="url(#clip1_1_9)">
<path d="M111.554 0.764481H108.815V2.05142C108.825 2.20893 108.825 2.3669 108.815 2.5244V13.2269C108.815 16.5268 106.088 17.6927 101.985 17.6927C97.882 17.6927 95.1431 16.5268 95.1431 13.2269V2.5134C95.1431 2.37041 95.1431 2.23841 95.1431 2.11742V0.764481H92.4482V2.05142C92.4482 2.18342 92.4482 2.33741 92.4482 2.5244V13.7879C92.4482 18.6387 97.618 20.1126 101.996 20.1126C106.374 20.1126 111.565 18.6387 111.521 13.7879V2.5134C111.515 2.38149 111.515 2.24933 111.521 2.11742L111.554 0.764481Z" fill="#878386"/>
<path d="M121.521 0.764481H118.848V2.01842C118.857 2.18328 118.857 2.34855 118.848 2.5134V18.0997C118.858 18.2645 118.858 18.4298 118.848 18.5947V19.8376H121.554L121.521 0.764481Z" fill="#878386"/>
<path d="M154.443 17.4067H140.286V11.28H151.429V8.84912H140.286V3.19537H153.849C153.977 3.18596 154.105 3.18596 154.234 3.19537H155.466V0.764481H137.404V2.04042C137.404 2.17242 137.404 2.32641 137.404 2.5134V18.0997C137.404 18.2867 137.404 18.4407 137.404 18.5727V19.8266H155.961V17.4067H154.443Z" fill="#878386"/>
<path d="M11.0495 0.764481V2.33741C11.0495 2.39241 11.0495 2.4584 11.0495 2.5244V13.7879C11.0495 16.8128 9.94955 17.6927 6.6497 17.6927C5.23354 17.7473 3.82642 17.4447 2.55788 16.8128L0.929956 16.0648L0.0499954 18.2647L2.0739 19.1997C2.35989 19.2986 2.68988 19.4196 3.05286 19.5186C4.20547 19.9347 5.42454 20.136 6.6497 20.1126C10.6865 20.1126 13.6894 18.9357 13.6894 14.6129V2.5134C13.6894 2.42541 13.6894 2.35941 13.6894 2.28241V0.764481H11.0495Z" fill="#878386"/>
<path d="M34.6879 17.8357C34.7961 18.0561 34.8773 18.2888 34.9299 18.5287L35.5458 19.8376H38.3617L29.3971 0.764481H25.7013L17.3637 19.8376H19.8496L20.3555 18.7377C20.4166 18.5148 20.5053 18.3005 20.6195 18.0997L22.3024 14.2389H22.3574V14.1729H32.884L34.6879 17.8357ZM23.3694 11.764L27.4722 2.70039L31.872 11.808L23.3694 11.764Z" fill="#878386"/>
<path d="M61.2523 16.5598L59.5364 14.3049L57.6445 15.6138C55.8233 16.8645 53.6485 17.4968 51.4407 17.4177C46.9419 17.4177 43.8621 14.3819 43.8621 10.356C43.8621 6.33022 46.8539 2.94238 51.8367 2.94238C53.8221 2.98631 55.7622 3.54335 57.4685 4.5593L59.1624 5.46126L60.4163 2.85438L58.6564 1.91942C58.3484 1.77643 57.8534 1.60044 57.3475 1.41344C55.556 0.756656 53.656 0.446824 51.7487 0.500485C45.864 0.500485 41.0022 4.14132 41.0022 10.4C41.0022 16.6588 45.688 20.1676 51.5727 20.1676C54.5492 20.1357 57.4499 19.2249 59.9104 17.5497L61.2523 16.5598Z" fill="#878386"/>
<path d="M82.372 21.4655L83.5269 22.4995L85.6608 20.6186L84.2309 19.3536C83.9009 19.1007 83.4609 18.7157 82.7899 18.1657C84.0852 17.3069 85.1445 16.137 85.8709 14.7631C86.5972 13.3892 86.9675 11.855 86.9478 10.301C86.9478 4.90029 82.7459 0.500488 76.0472 0.500488C69.3485 0.500488 65.1027 4.90029 65.1027 10.301C65.1027 15.7018 69.3485 20.1126 76.0472 20.1126C77.4347 20.1319 78.8151 19.9124 80.1281 19.4636C81.371 20.5416 82.031 21.1026 82.372 21.4655ZM76.0582 17.6817C71.1085 17.6817 67.9736 14.3819 67.9736 10.246C67.9736 6.11024 71.1085 2.93138 76.0582 2.93138C81.008 2.93138 84.1429 6.17623 84.1429 10.246C84.1633 11.3696 83.9119 12.4814 83.4102 13.4869C82.9084 14.4923 82.1711 15.3616 81.261 16.0208C80.314 16.737 79.2151 17.2263 78.0492 17.4507C77.3924 17.6014 76.721 17.6788 76.0472 17.6817H76.0582Z" fill="#878386"/>
<path d="M130.661 8.64012H127.802V11.511H130.661V8.64012Z" fill="#878386"/>
</g>
</g>
<defs>
<clipPath id="clip0_1_9">
<rect width="155.9" height="22" fill="white" transform="translate(0.0499878 0.5)"/>
</clipPath>
<clipPath id="clip1_1_9">
<rect width="155.9" height="21.999" fill="white" transform="translate(0.0499954 0.500488)"/>
</clipPath>
</defs>
</svg>
