<svg width="82" height="24" viewBox="0 0 82 24" fill="none" xmlns="http://www.w3.org/2000/svg">
<g clip-path="url(#clip0_1_780)">
<path fill-rule="evenodd" clip-rule="evenodd" d="M63.1546 1.11125C63.54 1.11125 63.8536 1.42216 63.8536 1.80578C63.8536 2.18806 63.54 2.49987 63.1546 2.49987C62.97 2.50011 62.7929 2.42721 62.6619 2.29713C62.5308 2.16706 62.4566 1.99039 62.4556 1.80578C62.4556 1.42216 62.7701 1.11125 63.1546 1.11125ZM63.1546 2.6832C63.3879 2.68355 63.6119 2.5914 63.7774 2.42693C63.9428 2.26245 64.0363 2.03909 64.0374 1.80578C64.037 1.69025 64.0138 1.57592 63.9692 1.46935C63.9246 1.36278 63.8594 1.26605 63.7774 1.18468C63.6954 1.10332 63.5981 1.03892 63.4912 0.995169C63.3843 0.951416 63.2697 0.929168 63.1542 0.929697C62.6684 0.929697 62.2727 1.32135 62.2727 1.80578C62.2727 2.28887 62.6685 2.6832 63.1546 2.6832ZM62.9789 1.35703C63.026 1.34704 63.074 1.34284 63.1221 1.34454C63.2733 1.34543 63.3781 1.4003 63.3781 1.5252C63.3781 1.63583 63.2804 1.71032 63.1261 1.71032H62.9789V1.35703ZM62.9789 1.8031H63.1158C63.2447 1.80667 63.3059 1.85752 63.3389 1.9909C63.3701 2.11223 63.3964 2.19386 63.4125 2.22197H63.5618C63.54 2.1845 63.5128 2.09171 63.4771 1.957C63.4478 1.85663 63.3982 1.7866 63.3125 1.75983V1.75716C63.4294 1.72236 63.5235 1.63716 63.5235 1.51182C63.5242 1.47635 63.5166 1.44122 63.5012 1.40923C63.4859 1.37724 63.4632 1.34929 63.4352 1.32759C63.367 1.27362 63.2658 1.24819 63.1114 1.24819C63.0137 1.24819 62.9071 1.25667 62.8348 1.26826V2.22197H62.9789V1.8031ZM80.7334 4.12624C79.2333 4.03256 78.1297 4.65483 77.6269 5.0157V4.09591H74.3863V16.1564H77.6894V8.50443C78.1609 7.24472 80.6915 7.31297 80.7165 7.31476L80.9064 7.321V4.13828L80.7334 4.12624ZM65.2739 10.1437C65.0277 8.49818 66.29 7.53645 66.3467 7.49586C67.0809 6.9579 67.759 6.74111 68.3656 6.85084C68.8599 6.93916 69.1864 7.22866 69.3448 7.40307L65.2739 10.1437ZM67.9802 3.97101C67.8834 3.96744 65.335 3.93264 63.5499 6.00955C63.4294 6.11259 61.6505 7.74031 62.3084 11.3544C62.3277 11.4463 62.775 13.5713 64.1173 14.748C64.1707 14.8039 65.7231 16.3749 68.4861 16.4062C68.5976 16.4106 71.3998 16.5109 73.1573 14.4804L73.234 14.3907L73.1815 14.2842L72.0243 11.895L71.903 11.6381L71.721 11.8566C71.709 11.8723 70.4331 13.3822 68.7564 13.4986H68.7475L68.7359 13.5004C68.6801 13.5107 67.3843 13.7163 66.4435 12.5998L73.7149 7.59221L73.8327 7.51014L73.7809 7.37675C73.7675 7.33928 72.3098 3.78277 67.9802 3.97101ZM58.0998 1.20581L58.1296 16.0074L58.1305 16.1894H61.5902V1.02293H58.1003L58.0998 1.20581ZM52.6613 10.6228C52.1336 11.1015 51.4363 11.0778 51.4284 11.0778C49.541 10.9953 49.5116 9.25338 49.5116 9.18023C49.5383 7.29334 51.3181 7.22465 51.4698 7.22108C53.0832 7.41779 53.255 8.94068 53.2688 9.08788C53.2385 9.76368 53.0346 10.2802 52.6613 10.6228ZM49.6606 4.23464C47.3665 5.05674 46.5336 7.28665 46.5001 7.38167C45.4965 9.73156 46.886 11.7969 47.2785 12.3107L46.1566 13.6253L46.0384 13.7658L46.1821 13.8827L48.5565 15.8061L48.7104 15.9333L48.8228 15.7674C49.9308 14.1481 51.5782 14.3176 51.6496 14.3257C52.6086 14.3836 53.2291 14.927 53.2358 14.9332C55.0803 16.3294 54.3135 18.4001 54.2796 18.4893C53.3518 20.6188 51.4284 20.4284 51.3485 20.4189H51.3271C49.7323 20.4189 48.8625 19.1758 48.8541 19.1632L48.7265 18.9804C48.7265 18.9791 48.573 19.14 48.573 19.14L46.5417 21.2193L46.4212 21.3396L46.534 21.4645C48.8206 24.0799 51.704 23.6699 51.9061 23.6378C54.8635 23.5053 56.5029 21.2059 56.5697 21.1072C58.3817 18.802 57.4775 15.655 57.4396 15.5211C57.0894 13.8528 55.6347 12.5449 55.5732 12.4901L55.5571 12.4736L55.5362 12.466C55.5103 12.4517 55.4916 12.4393 55.4719 12.4258C56.2793 11.647 56.501 9.8975 56.5087 9.82212C56.7004 8.68241 56.2677 7.43653 56.2473 7.383L56.2454 7.37051L56.2378 7.35802C56.1746 7.24533 56.1228 7.12651 56.0835 7.00339H56.9962L57.0332 6.86913L57.721 4.35552L57.7839 4.12669H52.7201C50.8854 3.72343 49.711 4.21233 49.6606 4.23464ZM41.717 4.19002C40.4532 4.16683 39.4401 4.68517 38.9637 4.98626V4.09591H35.6267L35.6276 4.27879L35.6914 15.9463L35.6923 16.1274H38.9308V9.80204C38.9879 8.18727 39.6432 7.92766 39.6498 7.92677L39.6646 7.91963L39.682 7.91204C40.7749 7.30271 41.473 7.68009 41.5702 7.73985L41.5818 7.75146L41.6099 7.76306C42.5377 8.16898 42.378 9.82836 42.3772 9.84352V16.1274H45.7115V9.86271C45.7115 7.62031 45.5772 7.03596 45.5107 6.88385C44.7265 4.22036 41.746 4.19002 41.717 4.19002ZM31.9204 12.0083C31.9283 12.3388 31.8303 12.6127 31.6299 12.8175C31.178 13.272 30.3636 13.2813 30.3529 13.2813C29.6944 13.2502 29.2198 13.0749 28.9531 12.7595C28.7878 12.5667 28.7053 12.3165 28.7233 12.0632C28.8068 11.589 29.0155 11.2513 29.3433 11.0564C30.037 10.6491 31.0643 10.9939 31.0754 10.9962C31.9542 11.2607 31.923 11.9628 31.9204 12.0083ZM28.1787 4.19583L27.4284 6.77099L27.3624 7.00295H32.0462V8.31752C29.1592 7.12651 27.3164 8.60301 27.2384 8.66724C25.5004 9.88101 25.5442 11.8923 25.5473 11.9789L25.5482 11.957C25.3845 13.8644 26.9248 15.1062 26.9899 15.1563C27.9516 15.9846 29.0632 16.1492 29.11 16.1564C30.4639 16.3972 31.6425 15.8275 32.1723 15.5082V16.097H35.0687V4.06468H28.2184L28.1787 4.19583ZM26.8311 7.22063V3.96744L26.6442 3.97145C25.1584 4.00625 24.1256 4.55045 23.6439 4.86448V4.11107H20.3256L20.3247 4.29263L20.2792 15.9301V16.1109H23.6899V8.82203C23.8638 7.24294 26.6219 7.22063 26.6474 7.22063H26.8311ZM21.0675 1.1795H17.444L17.3971 1.29101L14.5962 8.05701L11.0277 1.41502L10.8582 1.09831L10.6994 1.42127L7.4074 8.27068L4.42719 1.24284L4.38125 1.13132H0.613735L0.714993 1.38157L6.99567 16.7902L7.15536 17.1841L7.33245 16.7955L10.9189 8.86887L14.7319 16.8446L14.9161 17.2309L15.0686 16.8322L20.9733 1.42573L21.0675 1.1795Z" fill="black"/>
</g>
<defs>
<clipPath id="clip0_1_780">
<rect width="80.7625" height="22.75" fill="white" transform="translate(0.613735 0.929688)"/>
</clipPath>
</defs>
</svg>
